<?xml version="1.0" encoding="UTF-8"?>
<svg version="1.1" viewBox="0 0 1600 1600" width="512" height="512" xmlns="http://www.w3.org/2000/svg">
<path transform="translate(0)" d="m0 0h1600v1600h-1600z" fill="#FDFCFC"/>
<path transform="translate(1470,354)" d="m0 0h5l5 8 2 9 1 3 1 10 1 30 1 88 6-4 6-5 15 2h5l4-1 7 1 2-1 1-3v-34l1-21 1-8 1-1 11-2 5-5 11-7-2-2 4-2 2-4 7-9h3l4-10 6-10 5-4 1-2 2 1v2l5-4 1 1v1230h-1600v-1158h3l3 4v15l11 1 7 1 5 4 11 1 7 2 2 6 7 5 3 1v-2l3-1 3 8v3l2 1-1 3h2l3 10 1 7 2 9 3 5 6 3 11 5 10 3 7 9 6 1v-38l2-16 3-12 2-5 3-3 4 1 2 9 2 62v63l-1 29-2 8-4 2-3-3-3-9-3-1-1 56-1 178v153l1 56 4 10 7 8 14 7 8 2h1298l10-2 9-4 8-6 6-9 2-5v-172l-1-254-2-5-7 4h-5l-1-11-1-28-1-62v-130l1-38 2-26z" fill="#FDAF2E"/>
<path transform="translate(0)" d="m0 0h1600v264l-4-2-10-9 1-2-5-5-6-9-4-12-16-4h-13l-9-5-13-4-8-2h-13l-15-2-11-4-13-1-13-2-5-1v-2h-2l-9-19-6-13-2-1 9 25 1 24-1 5h-2l-1 6-9 6-7 1h-37l-228 1h-1010l-16 5-11 4h-2v2l-18 10h-2l-2 7-8 6-2 5-5 6-3 11-2 10-2 3-2 5-6 2-1-2-17 1-7 4-5 5-3-1-3-5-8-8v-2l-4-1 1 6 2 11 2 4 2 14 2 10 4 8 1 4-2 1-3 10v7l-8 3-1 2-3 1h-7z" fill="#FEB02E"/>
<path transform="translate(1424,165)" d="m0 0 3 1 6 13 8 16v3h2v2l10 1 8 1 13 1 11 4 15 2h14l14 4 12 5 3 2h13l16 5 3 5 3 9 7 10 3 3v2l10 9 2 1v25l-4 2-13-2-15-3-13-1-13-6-5-2v-9l-7-6-15-3-6-2-1-2-9-4-13-8-14-1-2-4-9-2-6-5-7-8-3-1 3 15 6 18-1 8 4 5 3 3 2 5v4l-6 2-6 3-1 1-17 2-12 3-15 2-7 1v2l10 2 37 3 9 3 3 5v2l6 2 5 5 2 5-17 3-17-3-13-3h-22l-6 1-64 2-4-1-8 1h-31l-48 1-28-1h-300l-33-1h-29l-33 1h-23l-72-1-35-1-24 1h-51l-30 1-27-1h-16l-37 1h-34l-20-1h-180l-18 1h-48l-26 1-12 3-3 11-4 9-4 8-4 16-5 5-5 4-5 7-11 1-3-3-3-8-1-14v-9l-1-11 1-41 5-15-15 5-11 1-7-3h-16l-1 7v24l1 7 6 5v5l-6 8-11 7-5 6-3 7-7-2-3-8-3-5-1-4h-2l-3-8-1-3h-6l-1 8 6 18 3 14 4 1v3l-20 6-6 2h-9l-4-1v-6l10-1 1-3 7-2v-7l3-10 3-1-6-12-2-10-2-14-2-6-3-13 1-2 4 1 6 8 5 5v2l4-1 3-1 1-3 7-4 17-1 1 3 6-3 3-9 6-21 5-5 2-5 6-5h2l1-5 4-4 12-6 2-2h3v-2l13-5 16-5h1010l228-1h38l7-2 7-4 4-11-1-24-8-23z" fill="#FCECCF"/>
<path transform="translate(1530,586)" d="m0 0 2 1 1 12v478l-3 14-8 15-9 10-12 10-12 7-13 5-17 4-18 1h-1292l-16-3-11-3-14-6-12-8-12-11-9-13-4-11-2-13v-467l2-1 26 6 19 6 1 1v400l1 56 4 10 7 8 14 7 8 2h1298l10-2 9-4 8-6 6-9 2-5 1-335 1-131 1-13 2-4 7-2h7l15-3h9z" fill="#8A540C"/>
<path transform="translate(1591,298)" d="m0 0h9v72l-4 2-4 4 1-5-1 1-6 5-7 12-1 5-4 4h-2l-8 11-3 2 2 2-14 10h-2l-1 3-11 2-1 12-1 17v34l-2 4-7 1-5-1-1 1-20-2-10 8h-2l-1-12-1-76-1-30-1-12-2-6-3-7-2-5-5 1-2 26-1 38v130l1 62 1 39 9-3 4-2 2 6 1 254v172l-6 12-9 8-5 3-9 3-7 1h-1298l-13-4-10-6-7-8-4-10-1-56v-153l1-178 1-56h4l3 7 3 5 4-4 1-8 1-26v-63l-2-62-2-9-4 1-2 4-3 10-2 13-1 11-1 34-4 1-5-5-4-5-13-4-8-4-8-5-3-6-2-10-2-14h-2l-1-4-3-10h-3v2l-4-1-7-5-1-6-18-2-5-4-18-2-1-5v-11l-2-4h-3v-42l5-1 22 3 6 3 11 6 1 3-3 10v2l5 2 7 1 1 2 6 2 4 4 4 10 3 6v2l4 2 4 1 2-2 2-7 2-1 10-1 1-1 1-14 2-4 10-5 2-9 6-5 2-5 9-3h8l3 21 3 19 7 17 9 27 3 14 2 42v36l-2 45v65l1 246v99l2 22 3 8 2 4h2l3 8 4 1h1252l9-2 6-5 2-7 1-14 2-55v-22l1-56 2-46v-37l-1-39-1-43v-44l-1-55-1-16v-137l1-29 3-7 2 3 3 9h2l2-13 1-7 1-71 1-8 1-23 2-15 4-2 7 2 3 5 2 15 1 43v27l5-2 16-3 10 1 5 1 3 5v2h2l2 7 1 1 1-16v-18l2-59 1-18 4-6 4-2 1-4h2v-2l6-4 2-5 10-3z" fill="#FBECCF"/>
<path transform="translate(1424,165)" d="m0 0 3 1 6 13 8 16v3h2v2l10 1 8 1 13 1 11 4 15 2h14l14 4 12 5 3 2h13l16 5 3 5 3 9 7 10 3 3v2l10 9 2 1v25l-4 2-13-2-15-3-13-1-13-6-5-2v-9l-7-6-15-3-6-2-1-2-9-4-13-8-14-1-2-4-9-2-6-5-7-8-3-1v11l-17 1-1 3-5 3-15 4-9 6-8 4-12 2-21 2-7 1-38 2-16 1-29 1-46 1-24 1h-107l-14-1h-12l-31-1h-81l-34 1h-116l-9 1-13-1-17 1h-59l-40-1h-170l-64 1-36-1h-103l-29-1-13-1h-36l-22-2-16-2h-67l-9-1-7 4-10 8-7 10-2 5h2v2l-4 4v31l1 7 6 5v5l-6 8-11 7-5 6-3 7-7-2-3-8-3-5-1-4h-2l-3-8-1-3h-6l-1 8 6 18 3 14 4 1v3l-20 6-6 2h-9l-4-1v-6l10-1 1-3 7-2v-7l3-10 3-1-6-12-2-10-2-14-2-6-3-13 1-2 4 1 6 8 5 5v2l4-1 3-1 1-3 7-4 17-1 1 3 6-3 3-9 6-21 5-5 2-5 6-5h2l1-5 4-4 12-6 2-2h3v-2l13-5 16-5h1010l228-1h38l7-2 7-4 4-11-1-24-8-23z" fill="#FFDFA7"/>
<path transform="translate(1057,623)" d="m0 0h16l12 2 15 5 11 7 7 6 3-9 6-7 10-4h8l10 5 6 7 2 7v152l-3 17-5 15-9 16-14 15-13 9-19 8-10 2h-30l-19-5-14-7-14-11-9-10-6-10-1-4v-8l3-8 6-7 8-4h10l10 4 10 11v2h2v2l5 2 4 3 8 3h21l9-3 9-5 7-9 5-10 2-8 1-13-10 8-14 7-11 3-7 1h-14l-13-2-13-4-15-8-15-14-6-9-8-16-5-19-1-9v-12l2-16 4-15 8-16 9-12 10-9 11-7 8-4z" fill="#030202"/>
<path transform="translate(1449,116)" d="m0 0 19 1 19 4 9 4 16 4 3 3 9 2h5l4 3 9 2 9 1 6 2h10l6 3 8 1 3 3 9 3 2 4 5 1v107l-4-2-10-9 1-2-5-5-6-9-4-12-16-4h-13l-9-5-13-4-8-2h-13l-15-2-11-4-13-1-13-2-5-1v-2h-2l-9-19-6-13-2-1 9 25 1 24-1 5h-2l-1 6-9 6-7 1h-37l-228 1h-1010l-16 5-11 4h-2v2l-18 10h-2l-2 7-8 6-2 5-5 6-3 11-2 10-2 3-2 5-6 2-1-2-17 1-7 4-5 5-3-1-3-5-8-8v-2l-4-1 1 6 2 11 2 4 2 14 2 10 4 8 1 4-2 1-3 10v7l-8 3-1 2-3 1h-7v-139l7-2 9-6h5l2-4 6-4 4-4h21v-2l2-1h18l4 1 5-1 32 1 8 2 5 1h10l15 3 45 2 50 1 221 2h443l71-1h177l50-1 45-2h23l28-1 6-3 1-3-7 1-1-2-10-3 1-4 15-3 6-3 9-3 2-4-1-2-6-1 3-3 3-1 4-9h3l4 1 4-6 2-2 4-3 6-2 4-6 6-4 9-7 5-3 12-6 8-2 7-2v-14l-1-9h2l5 8 7 2v-3l6-3 14-4 1-1z" fill="#FDC44A"/>
<path transform="translate(844,623)" d="m0 0h18l14 3 13 5 10 7 5 4 3-9 9-8 5-2h10l10 5 6 7 2 5 1 102 3 7 4 6 9 7 5 8 1 3v7l-4 10-5 5-7 4h-13l-10-3-10-6-9-9-1-4-10 8-14 8-10 4-9 2-10 1h-13l-17-3-15-6-10-7-10-9-8-10-6-10-5-14-3-12-1-9v-19l4-19 5-13 6-11 9-11 10-9 13-8 16-5z" fill="#030202"/>
<path transform="translate(1268,623)" d="m0 0h17l13 2 16 5 15 8 10 8 6 5 8 10 7 12 5 13 2 8 1 9v17l-3 16-6 16-8 12-11 12-10 8-17 9-16 5-6 1h-27l-14-3-15-6-14-9-9-8-8-10-8-13-7-21-1-5v-24l3-14 5-13 8-14 12-13 13-10 17-8z" fill="#030202"/>
<path transform="translate(414,616)" d="m0 0h12l10 2 10 6 6 8 5 13v78l-4 21-6 16-8 15-9 11-6 7-5 5-9 7-10 6-2 2-10 3-2 2-17 4-16 2h-13l-13-1-10-3-6-2-11-3v-2l-4-1-11-6-9-6-7-8-10-11-7-11-9-21-3-9-1-7v-10l2-17 3-9 5-5 5-3 13-5h11l9 2v2l5 2 6 4 4 7 2 1 4 17 3 7 6 10 6 7 8 6 3 1h27l10-5 5-5 5-8 3-7 1-14v-64l5-13 5-8 7-6z" fill="#FDB02E"/>
<path transform="translate(1530,586)" d="m0 0 2 1 1 12v478h-1l-1-75h-2v6l-2 10-4 8-4 1-4-3-2-3-5 3-2 4h-2l-1 5-1 2h-2l-1 2v-2h-2l-3-17-1-5h-4l-2 21-1 37h-1v-329l1-131 1-13 2-4 7-2h7l15-3h9z" fill="#AF7D28"/>
<path transform="translate(153,270)" d="m0 0h1227l6 1 16 1 1 3-4 1v3l-5 1-15 1-10 2-44 1-54 1h-58l-211 1h-803l-34 1-13 3-8 5-5 4-4 2-1 15-3 5-5 1-2-1v-2l-4-1-2-10v-12l3-7 7-8 9-6 11-4z" fill="#8A530C"/>
<path transform="translate(70,607)" d="m0 0 27 6 19 6 1 1v454h-1l-1-26v-14l-6 1-1-9-1-2-7 1-4 2-5-3-5-2-7 8-4-2-3-10-1-6-1 63h-1v-467z" fill="#B9893A"/>
<path transform="translate(1470,354)" d="m0 0h5l5 8 2 9 1 3 1 10 1 30 1 88 6-4 6-5 15 2h5l4-1 7 1 2-1 1-3v-34l1-21 1-8 1-1 11-2 5-5 11-7-2-2 4-2 2-4 7-9h3l4-10 6-10 5-4 1-2 2 1v2l5-4 1 1v146l-3 1v5l-3 3-4 1-4-1-5 4-7 4-13 2-7 1-5-5-1-8-2-2h-5l-3-2v8l1 5-2 11v20l-1 25h-1l-1-18-1-3-1 9-5 2h-3l-1-6-12-1-9 3-11 1-3 1-1 4-1 13-1 312h-1l-1-254-2-5-7 4h-5l-1-11-1-28-1-62v-130l1-38 2-26z" fill="#FEC54A"/>
<path transform="translate(1386,271)" d="m0 0h40l13 2 1 2-10 2-9 2-16 2-11 2-15 1-33 1h-16l-26 1-2 1-22 2h-54l-22 1-15 1-35 2-18 2h-16l-11 1h-13l-56 2h-36l-6 1h-141l-48 1h-22l-13 1-29-1-35-1h-30l-27 1h-114l-21-1-27 1-48-1h-184l-29-1-25-1-22-1h-10l-14 3-13 5-3 5 8-2v2l-6 4-6 10-2 14-2 38-5 3-7-2-4-3 2-16 2-5v-2l-4-1-2-4v-45h1l2 16 2 1v2h2v2h7l2-5 1-15 10-7 8-5 13-3 34-1h803l241-1h28l98-2 10-2 20-1v-3l3-2v-2h-16z" fill="#EED2A0"/>
<path transform="translate(1445,229)" d="m0 0 2 4 7 22-1 8 4 5 3 3 2 5v4l-6 2-6 3-1 1-17 1-33 1-2-1h-14l-36 2h-41l2-1v-2l-4-1 28-1h14l33-1 15-1 30-5 14-2 1-1-13-2-46-1h-1227l-13 4-9 5-7 6-2 2h-4l-12 4-11 1-7-3h-16l-1 7h-1v-7l3-4h2v-2h-2l1-5 8-11 14-11 8-1 4 1h69l24 3 21 1h27l13 1 40 1h102l38 1 53-1h177l44 1h52l13-1 13 1 14-1h119l33-1h82l33 1h8l14 1h109l15-1 48-1 32-1 32-2 17-1 15-2 19-2 9-2 6-4 8-5 15-4 5-3 1-2 4-1h13z" fill="#FBECCF"/>
<path transform="translate(716,564)" d="m0 0h13l8 4 6 7 3 9v144l-3 15-4 11-6 11-8 10-8 8-13 8-14 6-15 3h-14l-15-3-13-5-11-7-9-9-4-7-1-4v-7l3-8 6-7 6-3 9-1 10 4 15 8 4 1h16l12-6 6-8 4-10 1-146 3-8 4-5 6-4z" fill="#030202"/>
<path transform="translate(268,527)" d="m0 0 15 1 8 3 9 6 9 12v2l5-1 2-6 2-4 3-1 5-6 9-5 8-1h11l11 4 9 6 6 8 4 7 3-5 3-6 5-5 7-6 12-3h12l13 4 10 6 5 6 5 10 1 6v11l-2 9-4 9-5 2-2 3h-5l-1 5-14 6-18-2-2-2-7-2-2-5-5-2-3-6-3-3-1-6h-2l-2 6-5 5-3 5-2 4-6-3 1 4-4 3-13 4-10-1-8-3-5-3v-2l-5-1v-2h-4l-5-11-3-1-12 16-2 2-12 4-14 2-12-4-8-3-2-5-9-8-4-11v-21l5-5 3-7 10-8 10-4z" fill="#FDB02F"/>
<path transform="translate(0,442)" d="m0 0h3l3 4v15l11 1 7 1 5 4 11 1 7 2 2 6 7 5 3 1v-2l3-1 3 8v3l2 1-1 3h2l3 10 1 7 2 9 3 5 6 3 11 5 10 3 7 9 6 1v-38l2-16 3-12 2-5 3-3 4 1 2 9 2 62v63l-1 29-2 8-4 2-3-3-3-9-3-1-1 56h-1l-1-69-19-6-19-4-8-2-1 26h-1l-1-7-2-42-2-15-5-6-6-3-6 1-3-3-12-3-3-3-9-4-1-3-9-3-4-6-5-1z" fill="#FEC54A"/>
<path transform="translate(1483,1067)" d="m0 0h1v13l-6 10-8 7-5 3-9 3-7 1h-1298l-13-4-10-6-5-5-2-8 3-4 4 1 6 8 9 3 12 2h39l42 4 42 1h74l82-2h218l22 1 86 1 163-1 72 1h374l36-2 27-1h11l9-3 8-3 7-3 9-8 5-8z" fill="#FDFAF7"/>
<path transform="translate(1591,298)" d="m0 0h9v72l-4 2-4 4 1-5-1 1-6 5-7 12-1 5-4 4h-2l-8 11-3 2 2 2-14 10h-2l-1 3-11 2-1 12-1 17v34l-2 4-7 1-5-1-1 1-20-2-10 8h-2l-1-12-1-76-1-30-1-12-2-6-3-7-2-5-5 1-2 26-1 38h-1v-45l1-23 2-15 4-2 7 2 3 5 2 15 1 43v27l5-2 16-3 10 1 5 1 3 5v2h2l2 7 1 1 1-16v-18l2-59 1-18 4-6 4-2 1-4h2v-2l6-4 2-5 10-3z" fill="#FFDFA7"/>
<path transform="translate(56,219)" d="m0 0h18l4 1 5-1 32 1 8 2 5 1h10l15 3 45 2 50 1 221 2 433 1v1h-763l-16 5-11 4h-2v2l-18 10h-2l-2 7-8 6-2 5-5 6-3 11-2 10-2 3-2 5-6 2-1-2-17 1-7 4-5 5-3-1-3-5-8-8v-2l-4-1 1 6 2 11 2 4 2 14 2 10 4 8 1 4-2 1-3 10v7l-8 3-1 2-3 1h-7v-139l7-2 9-6h5l2-4 6-4 4-4h21v-2z" fill="#FDC44A"/>
<path transform="translate(1470,354)" d="m0 0h5l5 8 2 9 1 3 1 10 1 30 1 78v20l8-2h16l1 1h11l10-2 1-3h1l1 35-3 35-5 2h-3l-1-6-12-1-9 3-11 1-3 1-1 4-1 13-1 312h-1l-1-254-2-5-7 4h-5l-1-11-1-28-1-62v-130l1-38 2-26z" fill="#EEC06E"/>
<path transform="translate(135,551)" d="m0 0h1l1 35v16l1 21 2 21 1 98v79l1 38v99l-2 56h-4l-1-27-3-13-5-8v-4l-5-2v2h-2l-1 14-1 44h-2v-153l1-178 1-56h4l3 7 3 5 4-4 1-8 1-26z" fill="#FEDEA6"/>
<path transform="translate(71,688)" d="m0 0 2 3 5 9 7 1 1 1h15l9-3 4-1 1 2 1 9v151l-1 7-5-1-6 5-5-2-3-1-6 2v2l-5-1v-2h-4v-2l-5-1-2 4-2 3h-2v-184z" fill="#8A530C"/>
<path transform="translate(4,399)" d="m0 0 23 3 2 1 1 3 4 2 2 3 5 2-2 10-3 3-1 8 2 2h14l6 3 3 3 3 5 2 2v3h3l3 12 5 10 2 1v2l3 1 3 6v2l7 1 1-6 2-7 3-3 7 1 7 7 3-1v-12l2-24 1-21 2-6h2v-2l5-2 2-7 6-1 1 28 1 84v23l-1 6h-1l-2-62-2-9-4 1-2 4-3 10-2 13-1 11-1 34-4 1-5-5-4-5-13-4-8-4-8-5-3-6-2-10-2-14h-2l-1-4-3-10h-3v2l-4-1-7-5-1-6-18-2-5-4-18-2-1-5v-11l-2-4h-3v-42z" fill="#FFDFA7"/>
<path transform="translate(153,270)" d="m0 0h1227l6 1 16 1 1 3-4 1v3l-5 1-15 1-10 2-44 1-54 1h-58l-211 1h-277l-145-1v-1l497-1 47-1 11-1 7-2h7l4-3h2v2h2v-2l16-1 22-1 8-2h-1e3l2 3v6l49 1 57 2 207 1v1h-314l-34 1-13 3-8 5-5 4-4 2-1 15-3 5-5 1-2-1v-2l-4-1-2-10v-12l3-7 7-8 9-6 11-4z" fill="#B98530"/>
<path transform="translate(1386,271)" d="m0 0h40l13 2 1 2-10 2-9 2-16 2-11 2-15 1-33 1h-16l-26 1-126 1-46 1-23 1h-17l-131 2h-32l-40-1-34 1-13 2-7-1-23 2h-53l-6-1-3 1-16-1-7-1h-11l-4-1h-39l-24 1h-17l-16 1h-63l-3 1h-67l-11-2-15-1h-12l-24 1h-23l-5 1-7-1-30-1h-34l-89-1h-66l-9 3-12 7-5 2h-5l-1 26-2 5h-2v2l-5 1-1 3h-6l-1-2-1-9v-28h1l2 16 2 1v2h2v2h7l2-5 1-15 10-7 8-5 13-3 34-1h803l241-1h28l98-2 10-2 20-1v-3l3-2v-2h-16z" fill="#E1C18A"/>
<path transform="translate(855,665)" d="m0 0h15l11 4 9 6 8 9 4 9 3 12v14l-3 12-6 11-9 9-10 5-8 2h-13l-13-4-10-7-6-7-6-12-2-10v-16l4-12 6-10 10-9 8-4z" fill="#FDFBFA"/>
<path transform="translate(1068,665)" d="m0 0h15l9 3 10 6 7 7 7 14 2 9v15l-3 12-6 11-4 5-9 6-10 4-4 1h-13l-13-4-9-6-7-8-6-12-2-10v-12l2-11 5-10 6-8 11-8z" fill="#FDFBFA"/>
<path transform="translate(1267,666)" d="m0 0h21l12 5 9 7 7 10 5 13v19l-3 10-6 11-7 7-10 6-12 3h-12l-11-3-10-6-8-9-5-9-3-12v-12l3-13 5-9 9-10 10-6z" fill="#FDFBFA"/>
<path transform="translate(1529,692)" d="m0 0 2 1 1 22 1 51v33l-1 54-2 3-3-6h-11l-4 2-10-4-3-5v-2l-4-1-2 5-4-1-2-5-1-27v-29l1-52 1-18h5l2 3 5-1 7-3 5-3 4 2 6 1h2l3-10z" fill="#8A530C"/>
<path transform="translate(1466,549)" d="m0 0h1l1 62 1 39 9-3 4-2 2 6 1 254v155h-1l-1-95-2-5-2-3-4 1-5-6-3-11-2-22v-16l-1-26v-44l-1-60 1-37 1-82z" fill="#FEDEA7"/>
<path transform="translate(1445,229)" d="m0 0 2 4 5 16-1 5-8 3-12 1h-10l-25 2-37 5-8 2 1 2h-650l-50-2h-75l-27 1h-66l-27-1-14-1 1-2 51-1h177l44 1h52l13-1 13 1 14-1h119l33-1h82l33 1h8l14 1h109l15-1 48-1 32-1 32-2 17-1 15-2 19-2 9-2 6-4 8-5 15-4 5-3 1-2 4-1h13z" fill="#FCEDCF"/>
<path transform="translate(127,472)" d="m0 0 4 1 2 9 2 62v63l-1 29-2 8-4 2-3-3-3-9-3-1-1 56h-1l-1-80-1-8-3-2-6-2-4-2-9-2-9-1-10-2v-3h-2v-2h-2l-1 9h-1l-2-29v-14l1-13 3-5h2l1 4 5 1 5 2h6l11 4 5 2 8 4 4-1v-41l2-16 3-12 2-5z" fill="#EFC06D"/>
<path transform="translate(102,903)" d="m0 0 2 3 3 3v2h2l3 10 3 1 2 98v54h-1l-1-26v-14l-6 1-1-9-1-2-7 1-4 2-5-3-5-2-7 8-4-2-3-10-1-6-1 63h-1v-103l1-65 2 1 2 12 2 4v3l1-2h3v-5l3-3 3-12 3-1 4 8 3 1 2-6z" fill="#9E6D1C"/>
<path transform="translate(1424,165)" d="m0 0 3 1 6 13 8 16v3h2v2l10 1 8 1 13 1 11 4 15 2h14l14 4 12 5 3 2h13l16 5 3 5 3 9 7 10 3 3v2l10 9 2 1v20h-9l-13-3-12-2-6-3-3-8v-7l-5-2v-5l2-4 2-1 1-12-5 3-9 6-8 1-11-4v-2h-7l-4-2-11-1-1-1h-9l-7-3-4-6-6-2-1 5-1 1h-11l-5-3-3-2v-2h-2l-4-9-7-13-2-2 4 20 1 4v7h-29v-1l7-2 7-4 4-11-1-24-8-23z" fill="#FEDF6D"/>
<path transform="translate(268,527)" d="m0 0 15 1 8 3 9 6 9 12v2l5-1 2-6 2-4 3-1 5-6 9-5 8-1h11l4 2h-7l-2 8-10 1-4 1-4-3v-2l-5 3-2 5 3-1 4 3 8 1 3-1v4l-13 3-4 1-5 4 2 5 3 18-2 2-5-1 1-7h2l-4-6v-5h-6l-3 5v11l5 1-4 2-8 11-5 6-12 4-14 2-12-4-8-3-2-5-9-8-4-11v-21l5-5 3-7 10-8 10-4z" fill="#FDC54A"/>
<path transform="translate(1100,1290)" d="m0 0h3l8 18 6 13 11 24 2 2 5-13 12-26 8-16 2-1 15-1 1 82-3 1h-16l-1-39-2 3-7 17-9 18h-12l-8-16-6-14-4-8-1 38h-18v-81z" fill="#020102"/>
<path transform="translate(1530,586)" d="m0 0 2 1 1 12v110h-1v-49h-2l-3 9-3 1-1 2h-13l-8 4-5 3-5-3-4-1-1 24h-1v-88l1-13 2-4 7-2h7l15-3h9z" fill="#CC933A"/>
<path transform="translate(671,1291)" d="m0 0h13l-1 11-2 8h15l1-9 2-10h15l-5 19h16l-1 7-2 7-14 1-1 1-2 13h14l-1 8-2 6-14 1-3 16-2 2h-13l2-11 2-8h-15l-3 18-1 1h-14l2-10 2-9h-11l-4-1 1-8 2-5h15l1-10 2-5h-15l1-8 2-6 14-1 3-17z" fill="#020102"/>
<path transform="translate(0,404)" d="m0 0h11l11 2 7 8-2 6 3 8 1 4-3 3-2 7-3 3 1 3 6 1 6-4 1-2 11-1 7 3 2 4 5 2 4 4 1 10h2l2 10 1 20 7 6 4 4 1 7 4-1h3l1 4 6 1v-2h9l1 5 1 9 1 8 2 6 1 4-4-2-5-7-13-4-8-4-8-5-3-6-2-10-2-14h-2l-1-4-3-10h-3v2l-4-1-7-5-1-6-18-2-5-4-18-2-1-5v-11l-2-4h-3z" fill="#FFDF6D"/>
<path transform="translate(1385,1311)" d="m0 0 8 1 9 4 5 6 3 12v38h-17l-1-37-3-5-7-1-4 1-1 4-1 38h-17l-1-1-1-38-5-4h-5l-5 6-1 37h-17v-58l1-1h10l3 3v2l6-2 6-4h9l8 4 3 3 5-2z" fill="#040202"/>
<path transform="translate(1452,252)" d="m0 0 2 3-1 8 4 5 3 3 2 5v4l-6 2-6 3-1 1-17 1-33 1-2-1h-14l-36 2h-41l2-1v-2l-4-1 28-1h14l33-1 15-1 30-5 14-2 1-1-13-2-46-1-1218-1v-1l1188-1 1-2 9-2 36-5 25-2h11l11-1z" fill="#FDE5BA"/>
<path transform="translate(1590,295)" d="m0 0h10v3l-27 3-15 2-5 1-2 6-4 3h-2v2h-2l-1 4-5 4-2 4-2 45-1 45v12l-1 9-2 1-2-3v-6h-2l-3-4v-3l-15-1-16 3-5 1-2-70-2-15-2-4-7-2-3 1-2 15-1 23-2-4 1-24 2-14 3-5 9 2 5 4 4 14 5 14 4 7v2l5 2 8 1 3-2 7 1 2 2 4-1 3-4 1-13 1-32 2-12 4-5h2l1-3 13-4 32-4z" fill="#FCEDCF"/>
<path transform="translate(574,1313)" d="m0 0h8l15 6 2-4 7-2 1 10v51l-4 10-6 6-10 4-9 1-12-4-8-7-2-3v-4h9l7 5 3 1h11l6-5 3-7 1-6-11 5h-11l-10-4-7-7-4-9-1-9 2-9 5-10 8-6z" fill="#040202"/>
<path transform="translate(1008,1312)" d="m0 0h7l11 5h4l2-4h12v59h-13l-1-4-4 1-10 4h-9l-11-4-7-7-5-10-1-5 1-13 6-12 8-6z" fill="#030102"/>
<path transform="translate(1206,1312)" d="m0 0h9l11 4v2h5l1-5h12v59h-11l-2-1-1-3-4 1-10 4h-8l-10-3-9-9-3-5-2-8v-12l4-10 7-8 8-5z" fill="#030102"/>
<path transform="translate(754,1289)" d="m0 0h10l11 4 9 8 4 10v4l-7 1h-12l-2-6-5-3h-6l-5 5-1 6 5 2 18 6 10 6 5 6 3 9-2 9-6 9-5 4-7 3-5 1h-13l-10-3-9-7-4-9v-7l16-2 6 10h13l4-4 2-6-5-2-24-9-8-7-4-10v-7l3-8 6-7 7-4z" fill="#040202"/>
<path transform="translate(1597,308)" d="m0 0h3v62l-4 2-4 4 1-5-1 1-6 5-7 12-1 5-4 4h-2l-8 11-3 2 2 2-14 10h-2l-1 3-11 2-1 8h-1v-30l2-8 12-3 6-15 6-8 7-8 6-7 2-6 6-4 1-15 1-4-6-7 2-4z" fill="#FEDE6C"/>
<path transform="translate(445,1313)" d="m0 0h10l9 4 5 1 4-4h5l1 1v57h-9l-1-5-4 2-1 2-7 2-13-1-9-4-5-5-5-9-1-4v-16l5-10 5-5 8-5z" fill="#040202"/>
<path transform="translate(1474,405)" d="m0 0 6 1 3 4 1 7 1 64-1 82-5 17-5 6-6-1v-27l-1-47v-85l2-15 3-5z" fill="#EAAC3F"/>
<path transform="translate(1530,924)" d="m0 0h1l1 50 1 10v93h-1l-1-75h-2v6l-2 10-4 8-4 1-4-3-2-3-5 3-2 4h-2l-1 5-1 2h-2l-1 2v-2h-2l-3-17-1-5h-4l-2 21h-1v-44l1-13 1-4 5-4 2-4 4 1v2l5-5 3-4h7l4 4 7 2 2-6 1-8 1-23z" fill="#9D6C1B"/>
<path transform="translate(819,1312)" d="m0 0h14l10 4 7 7 4 8 2 17h-43l5 6 5 3 7-1 4-2h10l10 1-2 5-10 10-11 4h-9l-13-5-6-5-4-7-3-7v-14l4-10 7-8 8-5z" fill="#030102"/>
<path transform="translate(137,1290)" d="m0 0h9l4 8 11 29 7 19 6 15 3 8v3h-13l-5-15v-3h-35l-1 5-4 12-1 1h-13l2-7 4-9 6-16 6-15 6-16 7-18z" fill="#050302"/>
<path transform="translate(1204,271)" d="m0 0h117l6 1-2 4-10 2-8 1-4 1-4-1-16 1-64 1-2-1v3l-56 1-15 1-144 1h-277l-145-1v-1l497-1 47-1 11-1 7-2h7l4-3h2v2h2v-2l16-1 22-1 4-1z" fill="#AE7823"/>
<path transform="translate(71,638)" d="m0 0h2v2l4 2 1 2 13 5 11 2h11l3 9v49h-1l-1-11-8 4-10 1h-10l-3-1-6-1-6-12h-1v-49z" fill="#B7893B"/>
<path transform="translate(1424,165)" d="m0 0 3 1 6 13 8 16 2 7 5 9 2 1 3 5 4-1 9-5h8l4 4 5 2 5 8 1 7h10l5-7 9 1 10 5 7 3 13 1 3 1h7l1-3 4-2 2-3 5 1 3-2 4 1-1 5-3 5-2 5-3 1 3 12 4 14 4 3v2h6l10 4 2 2 8 2v1h-9l-13-3-12-2-6-3-3-8v-7l-5-2v-5l2-4 2-1 1-12-5 3-9 6-8 1-11-4v-2h-7l-4-2-11-1-1-1h-9l-7-3-4-6-6-2-1 5-1 1h-11l-5-3-3-2v-2h-2l-4-9-7-13-2-2 4 20 1 4v7h-29v-1l7-2 7-4 4-11-1-24-8-23z" fill="#FFE38A"/>
<path transform="translate(1422,1313)" d="m0 0h16l1 36 2 7 13-1 5-4 1-2 1-36h17v59h-14l-1-5-7 4-8 2h-9l-9-4-5-5-3-6-1-4v-40z" fill="#030202"/>
<path transform="translate(1256,1313)" d="m0 0h16l1 36 5 6 2 1h7l7-6 1-36 1-1h16v59h-14l-1-3-5 1-8 3h-9l-9-3-7-6-4-11v-34z" fill="#020102"/>
<path transform="translate(919,1313)" d="m0 0h16l1 35 3 7 3 1h8l4-2 3-4 1-35 4-2h13v59h-14l-1-3-6 1-8 3h-9l-8-3-8-7-3-12v-37z" fill="#030102"/>
<path transform="translate(1599,299)" d="m0 0h1v9l-12 5-11 6 2 5 4 4-2 15-1 5-6 4-2 6-5 6-7 8-3 3-7 14-3 7-12 2-1 8h-1v-26l2-7h2l3-10 2-3 3-9 5-9 3-9 4-9 6-10 7-3 5-3 3-1v-2l5-1v-2l10-2z" fill="#FFE38A"/>
<path transform="translate(1438,200)" d="m0 0 5 5 7 13 2 7h2v2l8 4h11l2-6 6 2 3 3 1 3 5 2 5 1h6l5 1 18 4v2l11 3 8-1 9-6 2-2h3v12l-3 3-1 7 4 2 3 14 7 3 16 3 8 2 9 1v5l-4 2-13-2-15-3-13-1-13-6-5-2v-9l-7-6-15-3-6-2-1-2-9-4-13-8-14-1-2-4-9-2-6-5-7-8-3-1v7l-2-4-5-22z" fill="#FFF2A1"/>
<path transform="translate(122,403)" d="m0 0h8l-2 1-2 7-5 2v2l-2 1-1 5-1 21-2 27v9l-4 2-5-5v-2l-9-2-1 3h-2l-2 10-1 4-5-1-4-4-2-5-2-1v-2l-3-1-3-5-4-11v-6h-3l-3-5-6-8-5-2h-14l-3-4 1-7 4-5 1-8-5-2-1-3-5-2v-2l4 1 11 6 1 3-3 10v2l5 2 7 1 1 2 6 2 4 4 4 10 3 6v2l4 2 4 1 2-2 2-7 2-1 10-1 1-1 1-14 2-4 10-5 2-9 6-5 2-5z" fill="#FCEDD0"/>
<path transform="translate(352,1291)" d="m0 0h11l1 56 2 6 6 7 6 2h8l6-3 6-7 1-3 1-58h12v56l-2 8-3 6-8 8-7 3-5 1-13-1-9-3-9-8-4-11-1-12v-46z" fill="#020102"/>
<path transform="translate(877,1312)" d="m0 0h14l12 6 5 6 1 6-16 1-6-4v-2l-5 2-2 2v3l20 7 8 7 2 3v10l-6 9-4 3-5 2-6 1h-8l-11-3-5-5-5-7v-4l9-2h6l4 4v2l12-1-1-5-17-6-8-6-4-8 1-10 6-7 5-3z" fill="#040202"/>
<path transform="translate(1529,692)" d="m0 0 2 1 1 22v34l-2 6-3 3-6-1-6-2-13 1-1 3-3-3-2 2-2-4-4-1-1 2-1 10h-1v-34l1-18h5l2 3 5-1 7-3 5-3 4 2 6 1h2l3-10z" fill="#9D6B1A"/>
<path transform="translate(102,903)" d="m0 0 2 3 3 3v2h2l3 10 3 1v27h-3l-5-1-1 7-4 6-4 1-1 3-2-6-4 1-2-2v-4l-3 1-4 10-7 1-1-2-2-16-2-2v-39l2 1 2 12 2 4v3l1-2h3v-5l3-3 3-12 3-1 4 8 3 1 2-6z" fill="#B07E29"/>
<path transform="translate(1530,660)" d="m0 0h2l1 49v57h-1l-1-51-1-22-4 16-4 4-6-1-4-2-9 5-5 2-4-1-1-2-5-1v18l-1 52h-1v-84l1-21 1-3 6 1 4 2 5-4 7-3h13l4-4z" fill="#B07E29"/>
<path transform="translate(70,607)" d="m0 0 27 6 19 6 1 1v138h-1l-1-98-2-8h-11l-13-3-11-4-5-5v-2h-2l-1 93h-1v-123z" fill="#CD943A"/>
<path transform="translate(70,1008)" d="m0 0 2 4 3 14 2 3h2l2-3h2l2-4 2-1 10 5 7-3 4 1 1 2v9l6-1 1 14v20l-8-2 1 3-2 2-5-1-3-8-2-1v3h-2l-2 6h-2l-2 4h-6l-5-5-4-9-1-9h-2l-1-11z" fill="#946110"/>
<path transform="translate(1530,623)" d="m0 0 2 2v35h-2l-3 9-3 1-1 2h-13l-8 4-5 3-5-3-4-1-1 3v-34l1-8 4-3 4 1h7l5-3 1-2 18-1 2-4z" fill="#B7893B"/>
<path transform="translate(71,688)" d="m0 0 2 3 5 9 7 1 1 1h15l9-3 4-1 1 2 1 9v29h-1v-5l-5 3-3 6-10 1-5-1h-9l-5-2-3-5-4-11h-1v-35z" fill="#9D6C1B"/>
<path transform="translate(1531 1e3)" d="m0 0h1v30l-3 18-3 6-2 8-7 4-2-6h-4l-2-2-6-2-2 5-2 2-1 5-3-4-2-9-1-6 1-2-4-1-2 10h-1v-23l2-21 3-2v2h2l3 10 1 12h5l2-7h2l1-4 4-3 3-1 2 4 4 2h3l4-12v-5l2-7z" fill="#946110"/>
<path transform="translate(515,1313)" d="m0 0h8l10 4 5 5 4 6 2 5v39h-12l-1-41h-2l-6-6h-9l-6 4-3 4-1 39h-12l1-58 7 1 2 3 5-1z" fill="#080402"/>
<path transform="translate(219,1314)" d="m0 0h11l1 37 3 6 4 4h11l6-4 3-7 1-36h11v57l-1 1h-7l-2-5h-3v2l-10 4h-9l-10-4-7-8-2-8z" fill="#030202"/>
<path transform="translate(1445,229)" d="m0 0 2 4 5 16-1 5-8 3-12 1h-10l-25 2-37 5-8 2 1 2h-56l1-3 18-2 45-3 15-2 10-3 13-7 9-6 15-4 5-3 1-2 4-1h13z" fill="#FEF1C6"/>
<path transform="translate(71,944)" d="m0 0 2 4 2 18 7-1 3-10 4-1 2 5h4l2 5 6-6 2-3 1-7 3-1 3 1 2-1 1 2 1 20v50h-1l-1-16-2-10v-9l-1-4 2-2 1-5-5 1-4 10-6 3-3 4-10-5h-2l-1 6-4 3h-4l-3-18-1-8h-1v-23z" fill="#AB731E"/>
<path transform="translate(1591,298)" d="m0 0h9l-1 2-16 2v2l-5 1v2l-5 4-10 3-2 5-4 6-4 10-3 8-6 12-2 6-4 10-1 2h-2l-1 7-1 26-1 5h-1l2-66 1-18 4-6 4-2 1-4h2v-2l6-4 2-5 10-3z" fill="#FFF2A1"/>
<path transform="translate(1476,443)" d="m0 0h4l2 4 2 11 1 23-2 50-2 6h-4l-5-7-2-5-1-8-1-26v-20l1-17 4-8h2z" fill="#CC933A"/>
<path transform="translate(1531,374)" d="m0 0h1v55l-1 9-2 1-2-3v-6h-2l-3-4v-3l-15-1-16 3-5 1-1-29 10 1 9-3h10l9 5 2 4 5 1z" fill="#FEF1C6"/>
<path transform="translate(1485,742)" d="m0 0h1l1 123 2 16 13 2 3 2v2h2l1 3 2 1v12l-2 6-4 3-1 7-5 1-3-2-3 4-1 4h-3v24l-1 22-1 99h-1z" fill="#B7893B"/>
<path transform="translate(43,442)" d="m0 0 8 1 4 2 2 4 5 2 4 4 1 10h2l2 10 1 20 7 6 4 4 1 7 4-1h3l1 4 6 1v-2h9l1 5 1 9 1 8 2 6 1 4-4-2-5-7-13-4-8-4-8-5-3-6-2-10-1-7-1-2-1-12 1-7-4-17-5-1-3 2-4-1-2-3-3-14-9 2h-5l4-5z" fill="#FFE38A"/>
<path transform="translate(1532,799)" d="m0 0h1v58l-1 29-2 3-2-13-4-5-8 1-4 3-8-4-2-4-5 2-9-1-2-18v-38h1l1 27 2 5 4-2 1-2 4 1 4 7 10 3 3-2h11l3 5 1-1z" fill="#9E6D1B"/>
<path transform="translate(142,282)" d="m0 0 2 2-2 3 4-1 1-1 7-1h17l10-1 332 2v1h-314l-34 1-13 3-8 5-5 4-4 2-1 15-3 5-5 1-2-1v-2l-4-1-2-10v-12l3-7 5-1 8-4z" fill="#C79039"/>
<path transform="translate(188,1298)" d="m0 0h8v16h14v11h-13l1 33 5 4 7 1-1 8-3 2-9-1-7-4-4-8-1-7v-28h-10l-1-7 2-4 9-2 1-1 1-12z" fill="#090502"/>
<path transform="translate(1533,565)" d="m0 0h1l1 7v27l-1 74h-1l-1-80-1-6h-3l-1 3h-9l-15 3h-9l-5 2-1 3-1 20-1 124h-1v-149l1-15 3-3 2-1 11-1 9-3 9 1 3 1 1 6 5-2h3v-9z" fill="#EAAC3F"/>
<path transform="translate(10,300)" d="m0 0 4 1 6 8 3 2 2 8 4 5 2 5 1 1v5l5 2 2-8 3-1-1 7-3 6v6l-2-4-3-5v-2h-6l-1 8 6 18 3 14 4 1v3l-20 6-6 2h-9l-4-1v-6l10-1 1-3 7-2v-7l3-10 3-1-6-12-2-10-2-14-2-6-3-13z" fill="#FFE38A"/>
<path transform="translate(71,668)" d="m0 0 5 4 2 5h14l10 1 9-3 3 1 2 8v25h-1l-1-11-8 4-10 1h-10l-3-1-6-1-6-12h-1v-20z" fill="#B07E29"/>
<path transform="translate(5,281)" d="m0 0 3 1 5 10v2l3 1 5 13-1 2-6-7v-2l-4-1 1 6 2 11 2 4 2 14 2 10 4 8 1 4-2 1-3 10v7l-8 3-1 2-3 1h-7v-45h2l1-4 2-1 1 9h2v2h3v-6l2-3-1-6-1-4-4-19-1-11-1-5z" fill="#FEDE6C"/>
<path transform="translate(198,271)" d="m0 0h23l5 1 15 1v2l3-1 7 1 18 1v1l14 1v2l8-1 4 2h9l10 1 18 1 248 1v1h-274l-61-2-43-1-2-1v-6l-2-1z" fill="#976513"/>
<path transform="translate(1329,270)" d="m0 0h51l6 1 16 1 1 3-4 1v3l-5 1-15 1-10 2-44 1-54 1h-125v-1l15-1 139-1 16-1 4-1 9-2 2-2 5 1 4-1-1-4-10-1z" fill="#CB933A"/>
<path transform="translate(1055,1313)" d="m0 0h18v59h-18z" fill="#0C0702"/>
<path transform="translate(126,403)" d="m0 0 4 1h-2l-2 7-5 2v2l-2 1-1 5-1 21-2 27v9l-4 2-5-5v-2l-9-2-1 3h-2l-2 10-1 4-5-1-4-4-2-5-2-1v-2l-3-1-3-5-4-11v-6h-3l-3-5-6-8-5-2h-14l-3-4 1-7 3-2 1 7 10 2h3v2h7l5 5-1 4 4 4 3 5 1 10h2l3 5v2l10 2v-7l1-5-1-6 2-3 8-1 9 5 5 10v5h2l1-15 1-25 2-14 3-5 4-4 1-3z" fill="#FFF2C6"/>
<path transform="translate(153,270)" d="m0 0h37l8 1 2 4v6l49 1 30 1v1h-103l-6 1h-16l-7 1-2 2-4-1 2-4-11 3-6 3-3-1 2-4 9-7 8-4z" fill="#B07E29"/>
<path transform="translate(448,1324)" d="m0 0h8l8 5 5 9v11l-4 7-7 6h-13l-6-5-4-7v-13l2-5h2l2-4 4-3z" fill="#F8AD2E"/>
<path transform="translate(1507,470)" d="m0 0h15l4 4v2h6l1 3v12l-2 4-7 1-5-1-1 1-20-2-10 8h-2l-1-12v-16h1v11l5-1 3-4 4-7z" fill="#FFE38A"/>
<path transform="translate(1478,227)" d="m0 0 4 5 2 3v4l7-1 6 3 3 8 15 3 2 2v3l8-1 6-5 9-2h7l3 4-1 6-2 4-5 1 1 10 10 4h5l5 2 26 4 11 1-1 5-6 1-25-5-13-1-13-6-5-2v-9l-7-6-15-3-6-2-1-2-9-4-13-8-14-1-2-4-9-2-4-4 5 1 1 1 14 1-1-3z" fill="#FCEDCF"/>
<path transform="translate(115,839)" d="m0 0h1v21l-1 7-5-1-6 5-5-2-3-1-6 2v2l-5-1v-2h-4v-2l-5-1-2 4-2 3h-2v-21l3-8 4-2 1 4h2v3l5 1 4 1 8-4 12-1 4 1z" fill="#9D6C1B"/>
<path transform="translate(1528,954)" d="m0 0h1v16l-2 9-4 8-7-1-4-4-5 1-6 9-2-1-1-7-4 2-3 13-2 1-1 8-1 26h-1v-44l1-13 1-4 5-4 2-4 4 1v2l5-5 3-4h7l4 4 7 2 2-6z" fill="#AA731E"/>
<path transform="translate(69,584)" d="m0 0 3 1v2h2v3l10 1 9 1 11 3 3 2 7 2 2 2 1 16v2l-7-1-21-6-20-4z" fill="#EAAC3F"/>
<path transform="translate(576,1324)" d="m0 0h8l8 5 5 9v8l-5 8-8 6h-8l-6-4-6-8v-12l4-6 5-5z" fill="#FAAE2F"/>
<path transform="translate(69,731)" d="m0 0h1v142l3-3 2-4h3l3 1v2h4l1 2 4 1v-2l7-3 5 3 4-2 4-3 4 1 1-6 1-102h1v109l-1 1-1 15-1-2-9 3-2 2h-3v-2l-5-2-2 2h-4v3h-4l-1-2-5-2-1-4h-4l-2 7-2-2-1-9z" fill="#B17F2A"/>
<path transform="translate(4,399)" d="m0 0 23 3 2 1 1 3 4 2 2 3 5 2-2 10-3 3-1 8 2 2h14l6 3 3 3 3 5 2 2v3h3l3 12 2 5 2 7 4 3 5 15-4-3-6-5-3-3-1-9-1-2v-7h-2v-6l-2-1-1-4-3-3-5-2-2-4-6-2h-11l-2 4-5 3-6-2-2-4 4-2 1-7 3-4-3-10v-3l1-4-6-7-11-2h-8l-3-1v-4z" fill="#FFF1A1"/>
<path transform="translate(71,722)" d="m0 0h1l4 13 3 5 6 1h9l9 1h4l2-6 4-3h2l1 5v16l-1-2-3 1-4 8-2 3h-6l-3-2v-2l-6-1h-11-3l-5-6-2-13v-16z" fill="#956211"/>
<path transform="translate(860,1324)" d="m0 0h1l1 9 4 8 9 6 15 5 2 4-3 3h-10l-2-4-2-1-15 1 3 7 5 8-6-2-8-6-4 2-4 4-2-1 8-8 2-4h-20l-6 3-7-1-8-7v-2h43l-3-17-1-6 6 1z" fill="#F3BA45"/>
<path transform="translate(68,294)" d="m0 0h1l-1 33-1 10-7 2-2-5-2-1-2-6-6-9v-2h-2l-2 6-4 5-3 10-5-2-2-6-3-6-4-6 1-4 1 3 4-1 3-1 1-3 7-4 17-1 1 3 6-3 2-6z" fill="#FFDF6E"/>
<path transform="translate(1398,269)" d="m0 0h55l1 4-2 5-4 2-1 3-33 3-31 1-36 2h-41l2-1v-2l-4-1 28-1h14l33-1 15-1 30-5 14-2 1-1-13-2-46-1v-1z" fill="#FEDEA7"/>
<path transform="translate(308,1313)" d="m0 0h4v11l-11 3-5 6-1 2v36l-1 1h-11v-57l4-1 5 2 1 2 4-1 7-3z" fill="#030202"/>
<path transform="translate(1470,354)" d="m0 0h5l5 8 2 9 1 3 1 10 1 30v66h-1l-1-65-3-9h-8l-3 9h-1v-15h-1v-19l2-26z" fill="#FAC352"/>
<path transform="translate(1530,682)" d="m0 0 2 4 1 23v57h-1l-1-51-1-22-4 16-4 4-6-1-4-2-9 5-5 2-4-1-1-2-5-1v18l-1 52h-1v-84h2v-2l6 1v2h2l2 6h2l4-8h2v-2h2v-2h7l3 2h8l2-11z" fill="#AB731E"/>
<path transform="translate(149,307)" d="m0 0h2v2l-6 4-6 10-2 14-2 38-5 3-7-2-4-3 2-16 2-5v-2l-4-1-2-4v-17h1l1 11 6-1 3-3h3v-2l2-1 3-20 3-2 9-2z" fill="#FFF0A1"/>
<path transform="translate(1529,726)" d="m0 0 2 2 1 3v18l-2 6-3 3-6-1-6-2-13 1-1 3-3-3-2 2-2-4-4-1-1 2-1 10h-1v-19l1-7 5 2 3 5 3 3 4-9 5-5 4-1 4 1 4 2 6 1 2-5z" fill="#956211"/>
<path transform="translate(130,403)" d="m0 0h4l1 28 1 84v23l-1 6h-1l-1-30v-58l-1-18-1-6-4 1-4 2-2 4-1 5-1 16-3 29h-1v-9l-1-8 2-32 1-19 2-6h2v-2l5-2 2-7z" fill="#FFEDA2"/>
<path transform="translate(314,266)" d="m0 0 21 1h31l56-1h45l19 1h74l18-1h77l47 2v1h-410v-1z" fill="#FFF2C6"/>
<path transform="translate(128,431)" d="m0 0 4 1 1 6 1 28v25h-1l-2-15-1-3-4 1-2 4-3 10-2 13-2 18h-1v-20l1-32 2-18v-7l4-7z" fill="#FFE38A"/>
<path transform="translate(71,688)" d="m0 0 2 3 5 9 7 1 1 1h15l9-3 4-1 1 2 1 9v22h-1l-1-20h-4l-2 4-6 5h-8l-5 1-6-2v-2h-5l-4-8-3-10h-1v-10z" fill="#AB731E"/>
<path transform="translate(1487,822)" d="m0 0h1l1 5h4l4-4 3 2 2 6 2 3h12l4-2h6l2 3v3h2v2h2v13l-2 3-3-6h-11l-4 2-10-4-3-5v-2l-4-1-2 5-4-1-2-5z" fill="#956211"/>
<path transform="translate(75,826)" d="m0 0 4 3v3h2v2l10 2v-2l11-4 6 1 5 2v-2h2l1-4v12l-2 6-1 2h-9l-9 2-6 3-9-3v-3h-2l-2-3-3 1-1 7-2 1v-10l2-15z" fill="#956211"/>
<path transform="translate(1210,1328)" d="m0 0h8l6 4 4 5v10l-6 8-4 2h-9l-5-5-3-6v-8l4-6z" fill="#FEB02E"/>
<path transform="translate(1009,1328)" d="m0 0h9l6 4 4 7-1 9-7 8-2 1h-9l-5-4-3-6v-9l4-6z" fill="#FDAF2E"/>
<path transform="translate(1164,271)" d="m0 0h40l-1 2-7 1-2 1-31 1-1 2v-2h-5v2h-2v-2l-7 4-12 1-1 1-16 1-42 1h-47v-1l44-1 5-1 9-1 7-1 15-2 5-1 22-1 23-1z" fill="#956211"/>
<path transform="translate(68,302)" d="m0 0h1v31l-4 14-5 1-2-7-2-5-4-1-2 13-1 5h2l-1 8-3 2-1-5h-2l-3-6-3-5-1-7 4-7 1-5-3 1 2-5 5-8h2l7 11 1 1v5l3 1 1 4 7-1z" fill="#FFE389"/>
<path transform="translate(1347,1328)" d="m0 0 7 1 4 4v32l-1-2h-11l-3-1-1 10h-1v-37z" fill="#F5AA2D"/>
<path transform="translate(18,310)" d="m0 0 5 3 3 8 3 3 2 5 1 1v5l5 2 2-8 3-1-1 7-3 6v6l-2-4-3-5v-2h-6l-1 8 6 18 3 14 4 1v3l-20 6-6 2h-9l-4-1v-3l3-1 18-1 5-2 5-5-1-9-2-6-4-13-2-5-3-14-2-7-1-10z" fill="#FCEDCC"/>
<path transform="translate(1329,270)" d="m0 0h51l6 1 16 1 1 3-4 1v3l-5 1-15 1-10 2h-43v-3l24-1 8-2h6l2-1 2 1v-3l-5-1v-1l-34-1z" fill="#EAAE44"/>
<path transform="translate(153,270)" d="m0 0h37l8 1 2 4v6l49 1 30 1v1h-98v-2l-2-1 2-2 17-1 1-2h-43l-6 1h-8l-1-2 1-2z" fill="#A8731F"/>
<path transform="translate(1485,742)" d="m0 0h1l1 123 1 20v65l-1 22-1 99h-1z" fill="#D2983B"/>
<path transform="translate(1386,271)" d="m0 0h40l13 2 1 2-10 2-9 2-16 2-11 2-15 1-33 1h-75v-1l98-2 10-2 20-1v-3l3-2v-2h-16z" fill="#EFC06B"/>
<path transform="translate(1487,850)" d="m0 0h1v6l9 2 6 1 9 3 5-2h5l6 4 2 11 1-6h1v17l-2 3-2-13-4-5-8 1-4 3-8-4-2-4-5 2-9-1-1-7z" fill="#AB731E"/>
<path transform="translate(0,404)" d="m0 0h11l11 2 7 8-2 6 3 8 1 4-3 3-2 7-3 3 1 3 6 1 3-1v2l-8 3-4 3h-3l-1-4 1-4h2v-9l-1-4 1-5-4-8 1-11-9-2-3-2-5-1z" fill="#FFE38A"/>
<path transform="translate(69,297)" d="m0 0h1l1 24 1 7 6 5v5l-6 8-11 7-5 6-3 7-7-2-1-1v-5l3 4 3-9h-2l-1-3 4-15h5l3 7 1 5h4l3-14z" fill="#FCEDD0"/>
<path transform="translate(1321,271)" d="m0 0h18l1 5h-3l-1 2-5-1-2 2-10 2-2-1-1 2-16 1h-83v-3l72-1 11-1 4 1 9-2 10-1 3-3-5-1z" fill="#B07E29"/>
<path transform="translate(115,849)" d="m0 0h1v11l-1 7-5-1-6 5-5-2-3-1-6 2v2l-5-1v-2h-4v-2l-5-1-2 4-2 3h-2v-8l3-3 2-5h5l5 2v2l7-3 8 1 5 1 6-3 4 1z" fill="#AB731E"/>
<path transform="translate(140,1311)" d="m0 0 3 1 11 29v1h-24l1-6z" fill="#F4AA2E"/>
<path transform="translate(1204,271)" d="m0 0h23l-3 3-23 2-22 1 2 2-9 3-37 2h-58v-1l47-1 11-1 7-2h7l4-3h2v2h2v-2l16-1 22-1 4-1z" fill="#9D6C1B"/>
<path transform="translate(1590,295)" d="m0 0h10v3l-27 3-15 2-5 1-2 6-4 3h-2v2h-2l-1 4-5 4-2 4-1 18-1 6h-1v-27l2-12 4-5h2l1-3 13-4 32-4z" fill="#FCEDD0"/>
<path transform="translate(127,472)" d="m0 0 4 1 2 9v25h-1l-2-9h-3l-5 8-2 6-2 21h-1v-25l2-16 3-12 2-5z" fill="#FEC54A"/>
<path transform="translate(1207,1310)" d="m0 0h11l6 2h12l-4 2-1 4h-5v-2l-11-3h-9l-10 5-7 8-4 10v12l3 10 8 9-1 2-6-1-5-5-2-5-1-10v-18l4-9 5-5h2v-2l7-3z" fill="#F5BD47"/>
<path transform="translate(814,1349)" d="m0 0h41l1 3-1 2 4-1 2 2 1 5 6 10-6-2-8-6-4 2-4 4-2-1 8-8 2-4h-20l-6 3-7-1-7-6z" fill="#F4BB45"/>
<path transform="translate(267,684)" d="m0 0h11v1l-15 2v2l3 1 1 2 8 3v4l-3 1-13-3-3-4h-3l-2 3-3 1-4 6v20l-3 1 1 11 3-1 1-6h2l1 7 1 9-5-1-1-1-2 4-2-6-1-7v-10l2-17 3-9 5-5 5-3z" fill="#FCC655"/>
<path transform="translate(402,620)" d="m0 0 2 1-7 7-2 8-6 9-1 8v79l2 4-3 8-5 1-1-3-5 2-4 3-2-1 5-5 6-9 3-7 1-14v-64l5-13 5-8z" fill="#FDC54C"/>
<path transform="translate(1478,227)" d="m0 0 4 5 2 3v4l7-1 6 3 3 8 15 3 2 2v3l8-1 6-5 4 1-6 3-4 4h-10l-6-2-1-2-9-4-13-8-14-1-2-4-9-2-4-4 5 1 1 1 14 1-1-3z" fill="#FEF0C8"/>
<path transform="translate(117,300)" d="m0 0h1l2 16 2 1v2h2v2h7l2-5 1-15h1v27l-2 5h-2v2l-5 1-1 3h-6l-1-2-1-9z" fill="#FCC44D"/>
<path transform="translate(1471,339)" d="m0 0 4 1 5 4 3 8 1 16v16h-1l-1-12-2-6-3-7-2-5-5 1-2 26-1 38h-1v-45l1-23 1-1 2-10z" fill="#FFE28E"/>
<path transform="translate(414,527)" d="m0 0h12l8 2v1l-15 2-3 3h-3v2l-7 4-9 5-1-2-5 1-2 5-3 5-5 5-2-1 4-7 3-2 4-9 5-5 7-6z" fill="#FCC44E"/>
<path transform="translate(118,296)" d="m0 0 8 1 9 3-1 16-3 5-5 1-2-1v-2l-4-1-2-10z" fill="#EAAC3F"/>
<path transform="translate(1470,354)" d="m0 0h5l5 8 2 9 1 3 1 10v15h-1l-1-14h-2l-1-6-3-1v-2h-5l-2 10v7l-2 3v-15l2-26z" fill="#FEC54A"/>
<path transform="translate(1432,193)" d="m0 0h2l5 16 1 9v2l4 9v3h-29v-1l7-2 7-4 4-11z" fill="#FEDE6D"/>
<path transform="translate(100,474)" d="m0 0 5 1 2 4 2 10 1 8-8 1-6 2-2-1v-19l3-4h3z" fill="#FFF2A1"/>
<path transform="translate(1398,269)" d="m0 0h55l1 4-2 5-1 1-7 1-3 1-2-2 1-1-2-1v2l-16 1-13 2-4-2 16-2 17-3 1-1-13-2-46-1v-1z" fill="#FFDFA8"/>
<path transform="translate(1061,1287)" d="m0 0h7l5 5 1 2v6l-5 5-2 1h-6l-5-5-1-2v-6l4-5z" fill="#030102"/>
<path transform="translate(1468,619)" d="m0 0h1l3 11h5l3-1 2 1 2 15v6l-2-4h-3l-5 3h-5l-1-11z" fill="#FEC54A"/>
<path transform="translate(335,580)" d="m0 0 6 2v3l-2 2-2 3-3 4-1 5 6 1 3-3v-3h2v-3l4 1 2 2 1 7 2 2-8 1-12-3-6-4v-2l-5-1 1-2 2-1 1-4 4-4 5-1z" fill="#FDC44C"/>
<path transform="translate(1210,1328)" d="m0 0h8l6 4 4 5v10l-6 8-4 2h-9l-5-5-3-6v-8l4-6zm-1 2-5 6-1 7 3 7 6 3 6-1 6-4 2-5-4-8-9-5z" fill="#F1B843"/>
<path transform="translate(1522,887)" d="m0 0h4l3 10-1 9h-2l-1 9-5-2-3-5-1-8h-2v-6z" fill="#B7893B"/>
<path transform="translate(68,302)" d="m0 0h1v31l-4 14-5 1-2-7-2-5-4-1-2 13-1 5h2l-1 8-3 2-1-5h-2l-3-6-2-3h5l1 1 3-11 5-10 1 2h2v2l3 1 1 4 7-1z" fill="#FFECA3"/>
<path transform="translate(1013,1328)" d="m0 0 7 1 5 5 3 5-1 9-7 8-2 1h-9l-5-4-3-6v-9l4-6 3-2-4 8 1 6 1 5 5 2 5 1 5-2v-2h2l1-9-2-4-4-2-8-3z" fill="#F1B844"/>
<path transform="translate(1424,165)" d="m0 0 3 1 6 13 8 16 2 7 5 9 2 1 2 11-2-1-3-8-6-11-2-2 4 20 1 8-2-2-2-7-2-1 1-2-2-10-8-26-5-14z" fill="#FFEDA1"/>
<path transform="translate(153,270)" d="m0 0h37l2 2v3l-22 1h-14l-6 1h-8l-1-2 1-2z" fill="#AD7520"/>
<path transform="translate(389,634)" d="m0 0 1 2-4 11v64l-1 14-7 14-4 5-10 6-3-1 4-1 1-6 6-2 5-5 5-9 1-7v-72l5-12z" fill="#FDE7B5"/>
<path transform="translate(1536,266)" d="m0 0 3 1 2 9 10 3 1 1 26 4h12l10 1-1 5-6 1-25-5-13-1-13-6-5-2v-9z" fill="#FCEDCF"/>
<path transform="translate(149,307)" d="m0 0h2v2l-6 4-6 10-2 14-1 14h-1v-15l-4 1-1 3-10 6-2-3v-6l1 2 6-1 3-3h3v-2l2-1 3-20 3-2 9-2z" fill="#FEDFA8"/>
<path transform="translate(10,300)" d="m0 0 4 1 6 8 3 2-1 2-4-2h-2l2 10 2 7 1 7 2 7 3 10-1 3-2-5v-2h-2l-2-5-2-1-3-21-2-6-3-13z" fill="#FFEFA1"/>
<path transform="translate(1470,375)" d="m0 0 6 1 3 3 1 6h2l1 3 1 11v9h-1l-1-6-3-3-3-8-4-1v2h-4l1-13z" fill="#EFC06D"/>
<path transform="translate(679,1324)" d="m0 0h13l1 4-2 10-1 1h-14l1-10z" fill="#EBA22A"/>
<path transform="translate(102,263)" d="m0 0h22l8 3h19l4 1v2l4 1-16-1-2 1h-14v-2l-4 1-3-1-9-1-14 1-2-3z" fill="#FFF2C6"/>
<path transform="translate(343,527)" d="m0 0h11l4 2h-7l-2 8-10 1-4 1-4-3v-2l-2-1 6-5z" fill="#FBC44F"/>
<path transform="translate(132,348)" d="m0 0 2 1v17l-1 8-3 1-4-2-1-3 1-7-1-1v-6l1-5z" fill="#FFE38A"/>
<path transform="translate(1487,931)" d="m0 0h1v19l-1 22-1 99h-1v-134z" fill="#C48E36"/>
<path transform="translate(5,281)" d="m0 0 3 1 5 10v2l3 1 5 13-1 2-6-7v-2l-4-1 1 6 2 10-2 1v-5h-2l-2-8-1-11-1-5z" fill="#FFDF6D"/>
<path transform="translate(1104,1333)" d="m0 0 3 3 5 11 7 16 1 3-3-1-3-5-1-6-5-1-3 18h-1z" fill="#E5AD44"/>
<path transform="translate(69,297)" d="m0 0h1l1 24 1 7 6 5v5l-6 8-8 5-2-1 4-2 2-8z" fill="#FCEDCF"/>
<path transform="translate(245,698)" d="m0 0 2 1-3 4v20l-3 1 1 11 3-1 1-6h2l1 7 1 9-5-1-1-1-2 4-2-6-1-7v-10l2-17 3-7z" fill="#FDC54D"/>
<path transform="translate(822,1328)" d="m0 0h9l7 6v3l-17 1-8-1 2-4z" fill="#F1AA30"/>
<path transform="translate(133,617)" d="m0 0h1v19l-2 8-4 2-3-3-3-9-4-1v-9l5 1 2 5v4l3 1 4-10z" fill="#FEC54A"/>
<path transform="translate(402,620)" d="m0 0 2 1-7 7-2 8-6 9-1 8-1 57h-1l-1-45v-18l5-13 5-8z" fill="#FDC44A"/>
<path transform="translate(1236,265)" d="m0 0 23 1h12l3 3h-63l2-2z" fill="#FFF2C6"/>
<path transform="translate(987,1324)" d="m0 0 1 3-3 7-1 13 3 9-1 4-4-5-1-3-3-2-2 2v-16h2l2-4h2v-2h2l2-5z" fill="#F6BD46"/>
<path transform="translate(585,1326)" d="m0 0 4 1 5 5 3 6v8l-5 8-8 6h-8l-3-3 8-1 6-3 4-5h2l1-12h-3l-3-4-2-4z" fill="#EEB643"/>
<path transform="translate(857,1341)" d="m0 0h5l5 6-3 3-1 3 2 2-6-1-2 1-2-1v-2l-2-2h-40v-2h43z" fill="#E39E2C"/>
<path transform="translate(1153,1292)" d="m0 0 1 3-16 34-6 14-2 5-3-3v-3l4-3v-7l6-7 7-17z" fill="#F2BA45"/>
<path transform="translate(816,1308)" d="m0 0h15l4 4-16 1-8 3-7 6h-2l1-6 2-3 5-3z" fill="#F1B946"/>
<path transform="translate(1547,259)" d="m0 0 1 3-3 2h-3l1 10 10 4h5l5 2 24 4v1h-9l-26-4-9-4-2-1-3-9-3-3 1-2 10-2z" fill="#FFF2C6"/>
<path transform="translate(1557,301)" d="m0 0h6v1l-10 2-2 6-4 3h-2v2h-2l-1 4-5 4-2 4-1 18h-1v-20l3-6 2-6 7-4 2-4 5-3z" fill="#FFF2C6"/>
<path transform="translate(1453,269)" d="m0 0 4 1 3 6-1 3-10 4-3 2-25 2-22 1-2-2 41-3 9-1 5-5z" fill="#FFF2C6"/>
<path transform="translate(426,784)" d="m0 0 4 1-6 8-5 5-9 7-3 1v-3h2l1-4h2l3-6h2v-2h2l1-5z" fill="#F9C456"/>
<path transform="translate(1438,200)" d="m0 0 5 5 7 13 2 7h2l-1 3-5-5-3-1v7l-2-4-5-22z" fill="#FCEECD"/>
<path transform="translate(26,355)" d="m0 0 4 6 2 10-1 5-5 5-5 2-21 1v-2l10-1 7-1 5-2 5-4v-8l1-3-3-1z" fill="#FFF1A1"/>
<path transform="translate(1426,271)" d="m0 0h21l3 1v2l-4 3h-8v2l-16 1-13 2-4-2 16-2 17-3 1-1-13-2z" fill="#FFE286"/>
<path transform="translate(384,576)" d="m0 0h2l3 7 4 5v3l5 1 2 2 1 4 6 1v1h-7l-5-5-4-5-5-6-1-3-9 11-3 5h-4v2l-6 1 3-3v-4l6 3 1-4 5-7 3-3z" fill="#FDE5B5"/>
<path transform="translate(35,376)" d="m0 0 4 1v3l-20 6-6 2h-9l-4-1v-3l3-1 18-1 1-1h6l1-3 7 1z" fill="#FCEECD"/>
<path transform="translate(1475,225)" d="m0 0 6 2 3 3 1 3 5 5-6 1-3-7-3-3-1 6h-14l-8-4-1-4 8 4h11z" fill="#FEEDA5"/>
<path transform="translate(261,759)" d="m0 0 3 1-1 10-3 5-2 4-6-9-2-6 5 3 2-4z" fill="#FDC44A"/>
<path transform="translate(1471,334)" d="m0 0 6 1 5 3 2 7v19h-1l-1-12-4-9-4-3h-3l-2 10h-1v-8l2-7z" fill="#FFEFA2"/>
<path transform="translate(1210,1328)" d="m0 0h8l6 4 4 5v7l-3-1-3-6v-2l-5-2-4-2-5 1-3 4-3 10h-1v-8l4-6z" fill="#EEB543"/>
<path transform="translate(1476,582)" d="m0 0 2 1-4 18-3 5h-2v-21h5z" fill="#FEC54A"/>
<path transform="translate(1054,1313)" d="m0 0h1v51h-2l-1-28v-16l-2-4h2v-2z" fill="#FEC54A"/>
<path transform="translate(69,470)" d="m0 0 4 1 3 6 3 2 5 15-4-3-6-5-3-3-1-9z" fill="#FFF2A1"/>
<path transform="translate(1273,1319)" d="m0 0h1l1 30 3 4 10-1 4-5 1-14h1v18l-7 6h-7l-7-6z" fill="#F8BF47"/>
<path transform="translate(883,1325)" d="m0 0h4v2l4 2 7 2-2 2h-3v2l3 1-4 1-12-4-1-4z" fill="#E9B03E"/>
<path transform="translate(1424,165)" d="m0 0 3 1 6 13 8 16-1 3-2-5-4 1-4-10-6-17z" fill="#FFE990"/>
<path transform="translate(49,338)" d="m0 0 2 1-1 9-1 5h2l-1 8-3 2-1-5h-2l-3-6-2-3h5l1 1 3-11z" fill="#FEF2A5"/>
<path transform="translate(778,1328)" d="m0 0 6 1 3 3 1 3 2 1v2l6-4-1 15-4 2-4-13-5-6z" fill="#F8C24C"/>
<path transform="translate(280,1315)" d="m0 0h3v56h-1v-24h-2z" fill="#D99E37"/>
<path transform="translate(1462,241)" d="m0 0 10 2 3 4v5l-4 3-3-2v-2h-2l-4-6z" fill="#FCEDD0"/>
<path transform="translate(118,348)" d="m0 0 5 2 1 4-2 3-2 16 8 4 7-2-2 5-4 3v-2l-4-2-7-5v-13l1-9z" fill="#FFF2C6"/>
<path transform="translate(1342,1350)" d="m0 0h1v12l14 1 1 3-2 3-6-1-3 3h-5z" fill="#FDC44A"/>
<path transform="translate(135,1365)" d="m0 0h9l9 2 1 4-8-1h-18l-3-2v-2z" fill="#FEC54A"/>
<path transform="translate(352,543)" d="m0 0h8l7 2h5l1 4-4 1h-7l-5-3-2-1-1 4-3 1-1-5z" fill="#FCC44C"/>
<path transform="translate(564,1339)" d="m0 0 2 4 17 1 1 2-1 2h-7l-6 1v5l-3-1-3-5z" fill="#FAC047"/>
<path transform="translate(1421,271)" d="m0 0 15 1 4 2-2 2-17 3h-9l3-2 5-2z" fill="#FEC54A"/>
<path transform="translate(1590,295)" d="m0 0h10v3l-27 3h-13l2-2 24-3z" fill="#FCEDCE"/>
<path transform="translate(1397,279)" d="m0 0m-3 0 3 1-3 3-15 1h-25l4-2h11l10-2z" fill="#EFC06C"/>
<path transform="translate(202,275)" d="m0 0 12 1 3 2h4v2l2 2h-21l-2-1v-3h4v-2z" fill="#9C6B1A"/>
<path transform="translate(957,1315)" d="m0 0h1v35l-4 5-4 2h-8l-3-1v-3h10l4-1 2-3 1-5z" fill="#E8AE3F"/>
<path transform="translate(165,286)" d="m0 0h26v1l-25 1-10 3-16 9-5 1 1-2 7-4 5-4 11-4z" fill="#EFC06E"/>
<path transform="translate(880,1349)" d="m0 0 10 3 2 4-3 3h-10l-1-4z" fill="#F1A72D"/>
<path transform="translate(789,1358)" d="m0 0 2 1 3 11v4l-4-1-3-3v-4l-5 2-4 1 10-10z" fill="#F7BE48"/>
<path transform="translate(1204,271)" d="m0 0h23l-3 3-23 2h-6l3-3z" fill="#9C6A19"/>
<path transform="translate(1465,236)" d="m0 0h9l6 2v2l10 1 5 4 1 3-5-2-5-3-14-1-2-4-5-1z" fill="#FCEDD0"/>
<path transform="translate(1469,332)" d="m0 0h7l6 4 2 4v5l-4-8-7-2-3 1-2 15-1 23-2-4 1-24 2-13z" fill="#FDEFCB"/>
<path transform="translate(127,265)" d="m0 0 5 1h19l4 1v2l4 1-16-1-2 1h-14l-2-4z" fill="#FEF1C5"/>
<path transform="translate(145,280)" d="m0 0 5 2 6-1 1-1h2v2l16 1-4 2h-17l-7 1-2 2-4-1 2-4h-5l3-2z" fill="#B7893B"/>
<path transform="translate(575,1311)" d="m0 0h7l9 3h10l-4 5-5-1-10-4h-8l-13 6 1-3 10-5z" fill="#E8B143"/>
<path transform="translate(245,698)" d="m0 0 2 1-3 4v20l-3 1v11l-2-2v-10l2-17 3-7z" fill="#FDC44A"/>
<path transform="translate(518,1338)" d="m0 0h1v36l-3-1v-28z" fill="#FEC54A"/>
<path transform="translate(1207,1310)" d="m0 0h11l6 2h12l-4 2-1 4h-5v-2l-11-3h-10v-2z" fill="#E8B145"/>
<path transform="translate(18,310)" d="m0 0 5 3 2 8-4-2 1 17-2-1-2-13-1-1-1-10z" fill="#FFF1C4"/>
<path transform="translate(380,582)" d="m0 0v3l-3 2-3 5-2 4-6-3 1 4-2 1-1-10 2-3-2-1h3l2 5h3l3-1 2-4z" fill="#FDC44A"/>
<path transform="translate(134,328)" d="m0 0h1v5l-5 7-10 6-2-3v-6l1 2 6-1 3-3h3v-2l2-1z" fill="#FFE289"/>
<path transform="translate(917,1326)" d="m0 0h1l1 25 3 12 8 7-3 1-5-4-5-7-2-12 1-1z" fill="#DEA43C"/>
<path transform="translate(1535,480)" d="m0 0h2l3 9v10l-4 1-1-1z" fill="#FEB02E"/>
<path transform="translate(29,404)" d="m0 0 4 1 11 6 1 3-4 9-3 2 2-12-5-2-1-3-5-2z" fill="#FCEECD"/>
<path transform="translate(135,1290)" d="m0 0 1 3-7 18-6 16h-1l1-10 5-10 6-16z" fill="#F0B643"/>
<path transform="translate(328,543)" d="m0 0 11 2 3-1v4l-13 3-3-1v-6z" fill="#EFC171"/>
<path transform="translate(1487,931)" d="m0 0h1v19l-1 17h-2v-30z" fill="#C7903A"/>
<path transform="translate(457,551)" d="m0 0 2 2 1 6v11l-2 9-4 9-2-1 1-11 4-2z" fill="#F5C86E"/>
<path transform="translate(9,293)" d="m0 0 2 1v5l6 2 3 5 1 4-5-5-2-4-4-1 1 6 2 10-2 1v-5h-2l-1-4v-14z" fill="#FFE284"/>
<path transform="translate(1448,269)" d="m0 0h5l1 4-2 5-1 1-7 1-3 1-2-2 8-4 3-1v-2l-8-1v-1z" fill="#FFEEA2"/>
<path transform="translate(430,1320)" d="m0 0 2 1-4 7-4 9-1 11h-1l-1-22 6-1 2-4z" fill="#F2BA44"/>
<path transform="translate(1505,251)" d="m0 0h7l5 3v3l8-1 6-5 4 1-6 3-4 4h-10l-2-1v-2l-4-2z" fill="#FEF1C6"/>
<path transform="translate(4,399)" d="m0 0 23 3 2 2h-17l-12-1v-3z" fill="#FDF0C9"/>
<path transform="translate(301,545)" d="m0 0h5l3 8v3l-5 1-4-7z" fill="#FEB02F"/>
<path transform="translate(446,1311)" d="m0 0h9l8 3 6 1v4l-5-1-9-4h-10l-10 4v-2l8-4z" fill="#E9B245"/>
<path transform="translate(728,1277)" d="m0 0h5l-1 2-7 3-3 6-5 2h-17v-1l14-1 11-9z" fill="#F2C060"/>
<path transform="translate(134,301)" d="m0 0h1v27h-2v2l-6 3-1-4 1-2 5-1 1-7z" fill="#F0C06A"/>
<path transform="translate(673,1287)" d="m0 0 11 2v1h-13l-2 12-3-1-1-6 6-7z" fill="#F0B844"/>
<path transform="translate(309,725)" d="m0 0 3 3 7 11 8 7-2 1-8-7-6-5h-2z" fill="#FAC351"/>
<path transform="translate(50,341)" d="m0 0h1l2 7 1 9-5 7-4-1v-5l3 4 3-9h-2l-1-3z" fill="#FEF1C6"/>
<path transform="translate(795,1338)" d="m0 0h1l1 12 2 5-1 4-2-3-4-2-4 6-1-2 3-8 5-1z" fill="#DDA53A"/>
<path transform="translate(678,1330)" d="m0 0 1 3h2v2l6 1 3-3v6h-14v-6h2z" fill="#E6AE3E"/>
<path transform="translate(376,737)" d="m0 0 1 3-5 5-8 5-3-1 4-1 1-6 6-2z" fill="#FCECCD"/>
<path transform="translate(386,578)" d="m0 0 2 4 5 6v3l5 1 2 2 1 4 6 1v1h-7l-5-5-4-5-5-6z" fill="#FDE6BB"/>
<path transform="translate(1430,276)" d="m0 0h9l-1 3-16 1-13 2-4-2 16-2z" fill="#FFE38A"/>
<path transform="translate(122,634)" d="m0 0 2 2 3 8h3l2-3 1-5h1l-1 11h-2v2h-4v-2h-2v-3l-3-1-1-6z" fill="#FFE38A"/>
<path transform="translate(729,1306)" d="m0 0h1v15l-1-2h-5l1-7z" fill="#F6BE48"/>
<path transform="translate(368,813)" d="m0 0h6v5l3 2-8 2-4-1 3-2-2-4z" fill="#FBC34E"/>
<path transform="translate(1436,200)" d="m0 0 1 3h2l5 22-1 4-3-9-2-1 1-2-2-10z" fill="#FFE495"/>
<path transform="translate(70,1087)" d="m0 0 2 1 5 12 9 13-1 2-7-9-7-11z" fill="#F7BB44"/>
<path transform="translate(114,978)" d="m0 0h1v25l-2-4-1-10v-9z" fill="#AA721D"/>
<path transform="translate(1424,165)" d="m0 0 3 1 6 13 1 4-2-1-2 2-6-17z" fill="#FFE288"/>
<path transform="translate(1357,1366)" d="m0 0h1l1 5 16 1v1h-21l1-2h-8l2-1 1-3 6 1z" fill="#CC9130"/>
<path transform="translate(426,784)" d="m0 0 4 1-5 7-4 1-2-3 1-4z" fill="#FDC44A"/>
<path transform="translate(139,1077)" d="m0 0 5 2 5 4v3l-5-1-6-4-1-3z" fill="#E8CB98"/>
<path transform="translate(449,629)" d="m0 0 3 3 5 13v22h-1v-21h-2l-2-8z" fill="#F3C266"/>
<path transform="translate(141,324)" d="m0 0 2 1-2 6-2 9-2 11h-1v-14l3-10z" fill="#FEF1C6"/>
<path transform="translate(66,327)" d="m0 0h1v10l-7 2-2-6 5 1 2-5z" fill="#FFE38A"/>
<path transform="translate(128,281)" d="m0 0 10 2-12 6-3-1 2-4z" fill="#B8893A"/>
<path transform="translate(176,276)" d="m0 0h23l-1 3-22-1z" fill="#B7893B"/>
<path transform="translate(31,366)" d="m0 0 2 1 3 10v3l-7-1-1 2-2-1 5-5z" fill="#FEF1C7"/>
<path transform="translate(40,328)" d="m0 0h2l-1 7-3 6v6l-2-4-1-6h2l2-8z" fill="#FEEEA8"/>
<path transform="translate(118,1333)" d="m0 0 1 4-6 15-2 4-1-4 6-17z" fill="#EFB441"/>
<path transform="translate(741,1334)" d="m0 0 6 1 13 5-1 3-10-3v-2l-7-2z" fill="#F1BA4B"/>
<path transform="translate(751,1311)" d="m0 0 2 4v2l7 1 3 4h-6l-7-4v-6z" fill="#F5BD48"/>
<path transform="translate(666,1305)" d="m0 0h1v5h-15l-1 3v-7l5 1h9z" fill="#E4B048"/>
<path transform="translate(23,377)" d="m0 0m-1 1m-1 1 1 3-1 1-21 1v-2l10-1 7-1z" fill="#FFEEA2"/>
<path transform="translate(68,333)" d="m0 0h1v7l-3 8-3 2-5-1v-8l2 1 1 5h4z" fill="#FFF2C6"/>
<path transform="translate(1568,298)" d="m0 0h10l7 1v1l-12 1h-13l2-2z" fill="#FDEFCB"/>
<path transform="translate(1438,200)" d="m0 0 5 5 3 5-1 3-3-2-1 4-3-12z" fill="#FFF2C6"/>
<path transform="translate(706,1331)" d="m0 0 4 2v2l4 1 4 2h-13z" fill="#F6BD46"/>
<path transform="translate(441,585)" d="m0 0 5 5 2 1-1 2h-5l-1 5h-2l2-9-4 1z" fill="#FDC44B"/>
<path transform="translate(1464,244)" d="m0 0 8 1 1 4-4 2-5-3z" fill="#FEF1C6"/>
<path transform="translate(76,274)" d="m0 0v3l-3 7h2v2l-4 4-1 7-2-3 4-16z" fill="#FFDFA1"/>
<path transform="translate(1577,280)" d="m0 0 12 2 2 1 9 1v1h-13l-11-2z" fill="#FFEBA3"/>
<path transform="translate(384,714)" d="m0 0h1v11l-7 14-2-3 5-8 2-9z" fill="#FDE5BA"/>
<path transform="translate(585,1326)" d="m0 0 4 1 5 5 2 5-5-1-3-4-2-4z" fill="#F1B843"/>
<path transform="translate(1470,349)" d="m0 0h5l3 7-1 3-2-5-6 1v-5z" fill="#FFDF6D"/>
<path transform="translate(53,329)" d="m0 0 1 2h2v2l3 1v4h-2l-1-2-4-1-2 4-1-3z" fill="#FFF0A1"/>
<path transform="translate(176,283)" d="m0 0 15 1v2h-20l1-2z" fill="#CC933A"/>
<path transform="translate(1479,227)" d="m0 0 4 2 2 4 5 5-6 1-3-7z" fill="#FFEAA4"/>
<path transform="translate(197,1306)" d="m0 0 3 4v2h10l1 2h-14z" fill="#F3BC4D"/>
<path transform="translate(407,590)" d="m0 0v3h-4l1 4 2 2h-5l-4-8h7z" fill="#FCC44C"/>
<path transform="translate(1470,332)" d="m0 0h6l6 4 2 4v5l-4-8-7-2-4 1z" fill="#FFF2C6"/>
<path transform="translate(684,1362)" d="m0 0h1v7l-1 2-6-2 2-4 4-1z" fill="#F6BE48"/>
<path transform="translate(917,1357)" d="m0 0h3l3 7 7 6-3 1-5-4-5-7z" fill="#E8B040"/>
<path transform="translate(655,1362)" d="m0 0h1v7l-1 3h14v1l-15 1-1-5z" fill="#DFA73F"/>
<path transform="translate(231,1337)" d="m0 0h1l1 12 4 9-1 2-5-6z" fill="#F5BC46"/>
<path transform="translate(419,790)" d="m0 0 5 2-3 5-5 3 1-5-1-2z" fill="#EEC274"/>
<path transform="translate(118,337)" d="m0 0 1 2 4-1 2 2-4 6-3-3z" fill="#FFE07A"/>
<path transform="translate(102,341)" d="m0 0 4 2-1 5-5-1v-4z" fill="#FCEDD0"/>
<path transform="translate(884,1355)" d="m0 0h7v3l-2 1h-10l1-3z" fill="#F5BC46"/>
<path transform="translate(396,1352)" d="m0 0 1 3-8 7-3 1h-8v-1l10-2 5-5h2z" fill="#D49B33"/>
<path transform="translate(1152,1333)" d="m0 0h1v11l-4 1-2 1 3-9z" fill="#DFA539"/>
<path transform="translate(1519,1109)" d="m0 0 2 1-7 9-7 3 1-3 8-7z" fill="#F9BC43"/>
<path transform="translate(67,460)" d="m0 0h3l3 9v2l-4-1v-5h-2z" fill="#FFE9A4"/>
<path transform="translate(126,1312)" d="m0 0 2 1-2 6-3 8h-1l1-10z" fill="#E8AE3D"/>
<path transform="translate(177,266)" d="m0 0h9l6 2v1h-15z" fill="#FFF2C6"/>
<path transform="translate(209,1350)" d="m0 0 5 1-2 3h-8l-2-1v-2z" fill="#EAAC3F"/>
<path transform="translate(1208,1329)" d="m0 0 2 1-5 6-3 10h-1v-8l4-6z" fill="#D29B36"/>
<path transform="translate(1153,1292)" d="m0 0 1 3-6 13-2-3z" fill="#ECB342"/>
<path transform="translate(450,588)" d="m0 0 2 1-4 6-6 2-1-4 4-1 2 1 2-4z" fill="#FCE1B1"/>
<path transform="translate(434,576)" d="m0 0 4 2 2 2v5l-7-5z" fill="#FEC54A"/>
<path transform="translate(34,408)" d="m0 0 9 4-1 5-2 4-1-3 1-5-5-2z" fill="#FFF2C6"/>
<path transform="translate(789,1366)" d="m0 0h3l2 4v4l-4-1-1-1z" fill="#E8C07C"/>
<path transform="translate(954,1300)" d="m0 0 2 2-11 6h-2l1-3z" fill="#F7C25A"/>
<path transform="translate(1591,298)" d="m0 0h9l-1 2-6 1h-8v-2z" fill="#FFEBA3"/>
<path transform="translate(778,1328)" d="m0 0 6 1 3 3 1 4-2 1-4-5z" fill="#F4C04F"/>
<path transform="translate(333,560)" d="m0 0h8l-2 4-4 1-2-2z" fill="#FEC54A"/>
<path transform="translate(1132,1337)" d="m0 0 1 4-3 7-3-3v-3z" fill="#E9B03F"/>
<path transform="translate(1345,1313)" d="m0 0h2v2l-4 3h-5v-4z" fill="#ECB444"/>
<path transform="translate(100,1126)" d="m0 0 5 2 6 4-4 1-5-3z" fill="#F7BE47"/>
<path transform="translate(52,335)" d="m0 0h5l1 6-4-1-3 1z" fill="#FFF2C6"/>
<path transform="translate(1146,1306)" d="m0 0 1 4-4 8-2-1 3-9z" fill="#F4BC47"/>
<path transform="translate(907,1363)" d="m0 0h2l-2 4-5 5-7 1 2-2 6-3z" fill="#E7AF41"/>
<path transform="translate(1114,1353)" d="m0 0 2 3 4 8v2l-3-1-3-5-1-5z" fill="#E5AD3F"/>
<path transform="translate(140,1311)" d="m0 0 3 1 1 7-5-1z" fill="#EEB643"/>
<path transform="translate(1100,1287)" d="m0 0 4 2 2 7-3-3v-3h-13v-1h10z" fill="#F3C364"/>
<path transform="translate(673,1287)" d="m0 0 11 2v1l-14 1 1-3z" fill="#FDC44B"/>
<path transform="translate(240,585)" d="m0 0 6 4 4 4-1 4-3-5-6-5z" fill="#FDE6BE"/>
<path transform="translate(15,323)" d="m0 0 2 4 1 1 1 9-1 5h-1l-2-13z" fill="#FFE38A"/>
<path transform="translate(1435,192)" d="m0 0 3 4 2 5-3 2v-3h-2l-1-6z" fill="#FFE2A3"/>
<path transform="translate(460,1313)" d="m0 0 9 2v4l-5-1-4-3z" fill="#EEB747"/>
<path transform="translate(603,1308)" d="m0 0 4 2-1 4h-5l1-5z" fill="#F4C25B"/>
<path transform="translate(4,399)" d="m0 0 8 1 1 2h-13v-2z" fill="#FCEDD0"/>
</svg>
