<?xml version="1.0" encoding="UTF-8"?>
<svg version="1.1" viewBox="0 0 1596 1588" width="399" height="397" xmlns="http://www.w3.org/2000/svg">
<path transform="translate(0)" d="m0 0h1596v1588h-1596z" fill="#FDFDFD"/>
<path transform="translate(1011,471)" d="m0 0 7 1 9 7 4 8-1 6-8 10-3 3 7 5 1 4h2l2 4-1 7-6 8-6 2 7 8 4 5 4-2 4-5 7-4h6l8 5 4 5 2 9-5 9-6 4h-2v3l5 2 7 8 10-10 3-2h8l8 7 3 4 4-1 6-7 5-3h7l7 5 6 8 1 6-5 8-7 6-6 2-8-4-7-7-4 1-8 8v3l6 4 4 6-1 5h2l-2 6-6 7-3 2 2 4 7 7 4-1 8-8 5-1 8 1 7 7 4 6-1 6-6 8-6 5-2 1-9-1-5-5-3-5h-4l-7 8-2 3 5 5 7 9-1 5-8 11-4 4 6 3 4 6 2 1 1 5h-3l1 6-5 7-5 3 1 3 7 6 3 6v5l-6 9-5 5 5 6 3 2 1 3 2 1-1 9-6 9-4 3 1 3 6 5 5 7-3 9-6 7-7 4-9-3-8-7-3-3-2 4-5 5-3 2v2l8 7 4 6-3 11-4 4-6 2 5 6 5 5v2l5-2 4-5 7-4 9 1 8 7 4 8-6 12-5 4-3 1h-8l-6-4-6-7-2-1-2 5-7 7h-2l3 3 8 7 2 5-1 7-7 8-4 4 7 6v2l3 1 2 2 7-8 7-4h5l6 4 5 6 1 4 3 1-3 9-9 9 2 4 5 5 4 7-1 5-6 9h-2l-1 3h-2l4 5 5 4 3 5-1 7-4 8-8 6h-7l-8-6-6-8v-5l5-10 6-3-1-4-7-6-4-4-2 5-7 6-8 2-8-4-7-10-1-5 7-11 5-3-2-4-5-4-4-8 1-7 7-8 4-4-6-4-4-6-4 1-6 7-7 4-6-2-6-4-6-8-1-6 7-10 4-3h2l-7-8-6-5-2 3-4 5-8 4-7-1-8-7-4-4-7 8-4 3h-9l-8-6-3-4-4 1-6 7-3 2v2l8 6 4 5-1 9-7 8-9 5-5-2-8-7-5-7 1-6 6-8 5-3-2-4-8-9-2-5-9 16-8 11-11 9-15 9-15 7-14 3h-20l-18-4-17-8-11-7-10-9-6-7-10-17-2 1-3 6-8 6 4 4 5 4 4 7-3 9-6 7-8 4-6-2-5-4-7-9 1-7 4-6 5-4 2-1-2-4-7-8-4-1-4 6-5 4-6 2-7-2-10-10-4 5-6 5-5 2-6-1-8-7-6-9 2-6 4-5 6-4h2l-1-4-6-4-6-7v-7l7-9 5-3 1-3-5-2-6-7-3-7 6-9 9-7 5-1 6 3 5 5 4 5v2h2l-3 9-4 6-4 3h-2l3 5 5 4 4 4h2l2-4 5-5 4-3 9 1 7 7 5 9-2 6-5 6-5 4 2 4 5 4 5 5 6-8 5-4h9l8 6-2-7-1-4v-25l3-14 8-17 7-11 9-10 9-8 20-11 17-5h4l-5-9 1-6 7-8 6-4h8l6 4 6 8 1 2v6l-5 6 16 4 15 8 17 12 8 8 9 14 8 16 3 9 1 12v15l-2 12-2 7 5-6 5-4 8-1 5 3 7 9h3l6-8 3-3v-2l-6-4-4-5-1-8 6-10 6-4 6-1 8 3 9 11-2 10-4 5-7 4-1 2 4 2 7 6v2l4-1 5-7 5-3 5-1 6 2 7 7 2 3 4-2 7-8 4-2 8 1 9 9v2l4-1 7-8h2l-2-5-6-5-3-7 1-7 8-9h2v-4l-7-5-4-7 1-7 6-9 5-2v-3l-4-2-5-4-3-8v-6l7-8 4-3v-2l-6-4-2-5h-5l-5 7-4 3-6 1-8-3-7-9-2-7 4-8 9-7 4-1 7 2 10 10 2 1 2-5 7-6-2-4-7-6-2-7 2-8 5-6 4-2v-2l-7-6-2-3-5 1-3 5-9 4-8-1-5-4-5-9v-7l4-6 7-6v-2l-6-4-5-5-3-1-1 5-8 6-2 1-9-1-7-7-4-8 1-5 6-9 4-3h2l-4-4-5-4-4-8 2-9 7-7 4-1-10-10-4-1-7 8-4 2h-7l-7-3-5-6-2-4 1-10 4-6 7-4-4-4-5-4-3-6v-7l5-8 7-4-4-4-5-4-4-7 1-6 7-9 7-4h7l6 4 5 6 2 5-1 7-4 6-7 5 5 4 5 5 2 6-1 6-4 7-6 5 1 3 5 3 2 5 5-1 5-6 8-4h6l13 13v6l-6 9-6 5v2l8 7 5 8-8 13-6 2 3 5 5 4 3 5 3-1 6-8 5-3h9l11 11h2l6-8 4-3h9l3 1 7 8 3 2 6-7 5-3-10-10-2-5 2-10 4-5 6-4v-2l-4-2-6-5-1-2h-2l-7 8-6 3-8-1-7-6-5-8 1-4 5-9 6-4-1-4-5-3-3-4-5 1-5 6-7 3-7-1-8-7-4-8 2-8 9-8h2l-1-4-5-2-6-8v-10l8-8 4-1v-3l-4-2-6-5-3-9 2-6 6-7z" fill="#030605"/>
<path transform="translate(710,305)" d="m0 0h8l8 5 5 7 6-8 6-4h8l6 3 6 8 2 5-4 11-5 4h-3l2 5 5 5 2 4 5-3 5-5 4-3 6-1 7 3 7 8 2 4-1 7-6 8-6 4h-7l-6-3-8-8-4 5-7 5v3l5 2 1 3h2l4 8-1 6-6 8-4 3h-2l5 5 6 7 4-2 4-5 6-4 5-1 6 3 9 10 1 2v6l-4 6-7 6 1 4 8 7v2l5-3 4-5 6-4 9 1 6 5 3 4v2l4-2 4-5 6-4 8-1 4 2 7 9 2 4-1 6-3 6-7 6 6 7 3 3v2l4-1 7-8 5-3h7l8 7 5 5 4-4 5-6 4-2h6l6 4 4 5 4 7-1 5-4 7-6 5-7 2-8-4-6-7-4 1-6 7-4 1 5 5 7 8 1 7-6 9-6 5-2 1-9-1-7-5-6-10 1-5 5-7 6-4h2l-2-4-8-7-4-3-2 5-5 5-3 2h-9l-6-4-7-10 1-7 7-9 3-1-1-5-6-5-2-3h-4l-2 5-8 6h-7l-5-3-7-7h-4l-7 8-4 2-8-1-9-7-4-2-10 10 4 4 2 1v2l3 1 4 8-5 9-5 6-4 4 5 2 7 8 1 5-3 7-4 5-5 5 9 8 3 5-1 7-6 8-5 5 9 8 4 6-2 6-4 6-7 6-1 2 5 2 6 8 2 8-5 8-6 5 2 4 7 8 4-2 4-5 7-4 9 1 3 2v2h2l4 5h4l3-5 5-3-1-4-6-5-4-7 1-8 7-8 5-3 5-1 7 3 6 5 3 6-1 9-7 8-3 2-1 3 4 2 5 5 4 3 4-7 5-4 2-1h8l8 5 5 8v7l-3 6-7 6-4 2h-6l-9-7-3-4-4 1-4 6-5 3-7 1-7-4-5-6v-2h-6l-1 5-7 6-6 1-7-3-7-8h-3l-4 5-6 5-1 2 5 2 8 9 1 5-6 9-7 6 1 3 6 4 5 8-1 6-6 8-8 6-6-1-6-4-7-8-1-4 1-7 11-10 1-2-4-2-5-4-5-10 6-9 7-6-2-4-3-1-5-6h-3l-6 8-3 2h-10l-6-4-4-6-5 1-3 5-5 4 1 3 7 6 4 6-1 5-4 7-5 5-6 2-7-1-8-7-4-5-1-5 6-9 6-6-2-4-8-7-3-1-2 5-8 6h-9l-6-4-5-7-2-1-2 4-4 5-5 2 1 3 8 6 4 5-1 8-3 5-8 7-1 2 4 2 7 7 4-1 6-7 6-3 7 1 8 7 4 7-1 6-6 9-7 5-7-1-6-4-6-7h-2l-7 8-3 2v2l6 4 4 4 2 5-1 7-4 6-7 6h-10l-6-4-5-7-4 2-7 8h-2l1 4 5 2 6 7 1 5-5 10-5 4-2 1v3l5 3 5 7 1 6-4 9-6 5h-2l7 8 4 5 1 6-3 8-5 5-4 3h-8l-6-3v-2l-4-2-3-6v-7l3-6 6-5 2-1-1-3-7-6-2-3-3 1-6 7-5 3h-8l-8-6-5-8v-7l7-9 6-4h8l5 3 5 6v2l5 1 2-5 5-4 2-1-2-4-7-6-2-5v-7l4-6 7-6-1-3-5-3-3-5-4-1-3 5-6 6-6 1-7-3-4-2-4-6-4 1-7 8-9 2-7-3-8-11-1-3 3-8 7-7 5-2h7l6 4 6 7h2l4-6 5-4-2-4-5-4-3-5v-8l4-7 5-4 2-2-9-9-3-6 1-6 3-6 7-6-1-3-5-3-2-5-5 1-5 6-7 4-9-2-5-4-3-5h-5l-2 5-5 4-5 2-6-1-6-4-5-6-1-3v-9l8-8 5-3h7l5 3 8 8 3-1 4-6 4-3-1-3-7-6-2-4v-10l7-8 3-2-2-4-6-5-2-4-10 10-4 3-7-1-6-4-5-6-3-1-5 7-8 5-5-1-8-4-6-8-1-9 6-8 8-5h8l8 7 2 4 4-1 5-6 6-4h9l8 8 2 3h4l5-8 5-3h9l6 5 4 6 4-1 6-7 5-3h8l6 5 4 6 4-1 6-7 5-3h8l6 5 5 7 6-5 5-5 3-2h7l6 4 7 8 1 7-5 8-5 5-2 3 8 6 4 7-1 7-4 6-5 4h-2l3 5 7 8 4-2 5-6 8-3 7 1 2 1v2l3 1 5 6 5-5 6-5 7-1 7 2 7 8 3 1 7-8 3-3-7-6-5-9 1-5 4-7 7-5-6-7-3-4-5 1-5 6-6 3-8-1-8-7-4-6-1-2v-3l6-8 7-6 2-1 9 1 7 6 5 5 6-8h2v-2l3-2h8l7 5 5 6 4-1 4-6 4-1-1-5-7-5-4-9 1-5 6-7 5-3-1-4-6-4-4-6v-8l6-9 5-3-2-4-7-6-1-2-4 2-6 7-8 3-4-1-6-4-6-8-1-7 6-9 5-4 4-2h7l7 6 4 6 4-2 3-5 5-3-2-4-7-7-4-5h2v-7l8-9 2-1-1-4-6-5-3-7 1-8 7-8 4-4-4-2-5-4-2-4h-2l-7 8-6 4-7-1-6-4-6-7-1-7 4-8 6-5 2-2-9-8-3-8 2-8 5-6 6-2-4-4-7-6-1-2v-10l4-8z" fill="#030505"/>
<path transform="translate(1011,1037)" d="m0 0h6l6 4 3 4v2l5 2 7-9 4-3 10 1 7 6v2l3 1 2 5-1 7-5 7-6 4-1 2 4 2 6 5 3 6-1 6-5 8-5 5-1 2 5 2 5 6 3 1 4-6 6-5 8-1 7 4 5 7 4-1 5-6 6-4h6l6 4 6 7 5-1 5-6 2-1-1-4-7-7-2-5v-7l6-8 5-3-2-4-5-4-3-4-4 1-4 6-8 5-8-2-6-5-5-9 1-7 7-8 7-4h6l6 4 4 6 4 2 4-6h2l2-4 4-2 8 1 8 6 4 6v8l-4 6-6 5-1 3 7 5 5 5 6-8 4-3 7-1 5 2 5 4 7 10-2 5-6 8-4 4v3l8 7 4 1 5-6 8-5 7 1 9 9 3 4-1 9-7 8-3 2 2 4 9 9 4-4 5-6 7-3 8 3 8 9 1 3v7l-4 6-7 5 2 4 8 8 4-1 7-8 8-2 5 2 8 8 2 6-1 6-4 6-7 6h-7l-8-4-5-7-4 2-8 9 4 5 5 4 3 6-1 6-8 9-3 2 2 4 8 7 2 4-1 6-4 6-8 7-7 1-9-6-4-6-4 1-4 6-6 5-9-1-8-7-2-3-4 1-5 6-4 2 2 4 7 6 3 6-1 5-5 8-6 5-7 1-5-2-5-5-6-7-1-4 6-9 7-5 1-4-5-2-5-5-4-1-4 6-8 6-6-1-9-7-5-5-2 1-3 6-6 5h-8l-8-6-4-5h-3l-4 6-5 3 1 4 7 6 1 4 3 1v4l-3 3-3 6-7 6-4 1-7-1-8-8-4-7 2-6 5-7 5-2v-5l-8-6-4-2-7 8-5 3h-6l-8-6-7-6-6 8-6 4h-6l-8-5-6-7-9 9-4 3h-7l-6-4-6-7-2-4v-6l7-9 5-4 5-1 8 3 10 10 5-8 5-4-9-9-2-7 1-7 7-8 5-3h7l8 6 5 6 9-9 4-3h8l8 7 5 6 6-8 4-2-1-4-7-8-2-4 1-9 9-10-1-3-7-5-2-3-3 1-7 8-4 2-9-1-6-5-5-9 1-7 4-6 6-5v-3l-4-2-4-4-3-6 1-8 4-6 6-3-1-4-6-5-2-3-4 1-5 6-6 3-9-1-8-7-5-8 2-5 4-6 7-5-2-4-6-5-4-8 2-7 5-6z" fill="#030605"/>
<path transform="translate(1238,305)" d="m0 0h18l17 3 21 7 15 8 13 10 10 9 13 17 9 17 6 18 3 20v15l-2 16-5 18-9 19-12 16-14 14-13 9-17 9-18 6-9 2-11 1h-12l-17-2-20-6-16-8-11-7-10-8-7-7-13-17-8-15-6-18-3-16v-28l4-18 6-16 10-18 11-13 9-9 12-9 16-9 13-5 18-4z" fill="#FEFEFE"/>
<path transform="translate(373,305)" d="m0 0h17l15 2 20 6 16 8 11 7 11 10 5 5 8 9 10 16 8 20 3 13 2 21-2 21-5 19-10 21-12 16-13 13-13 9-16 8-15 6-14 3-18 1-21-2-17-5-12-5-11-6-14-10-14-14-11-16-7-14-5-15-3-15-1-11v-12l3-19 6-18 8-16 7-10 9-10 10-10 10-7 16-9 14-5 16-4z" fill="#FEFEFE"/>
<path transform="translate(376,1170)" d="m0 0h12l16 2 15 4 16 7 11 6 13 10 13 13 9 13 9 17 5 16 3 16v27l-4 20-8 20-10 16-12 13-8 8-10 7-19 10-18 6-20 3h-12l-21-3-17-5-16-8-11-7-10-9-5-5-10-11-8-13-7-16-4-13-3-20v-13l2-16 4-16 12-25 9-11 9-10 11-10 12-8 20-9 16-4z" fill="#FEFEFE"/>
<path transform="translate(810,738)" d="m0 0h8l6 4 6 8 1 2v6l-5 6 16 4 15 8 17 12 8 8 9 14 8 16 3 9 1 12v15l-2 12-3 12h-2l-2 6-11 18-7 8-8 6-15 9-15 7-14 3h-20l-18-4-17-8-11-7-10-9-6-7-10-17-2 1-3 6-8 6 4 4 5 4 4 7-3 9-6 7-8 4-6-2-5-4-7-9 1-7 4-6 5-4 2-1-2-4-7-8-4-1-4 6-5 4-6 2-7-2-10-10-4 5-6 5-5 2-6-1-8-7-6-9 2-6 4-5 6-4h2l-1-4-6-4-6-7v-7l7-9 5-3 1-3-5-2-6-7-3-7 6-9 9-7 5-1 6 3 5 5 4 5v2h2l-3 9-4 6-4 3h-2l3 5 5 4 4 4h2l2-4 5-5 4-3 9 1 7 7 5 9-2 6-5 6-5 4 2 4 5 4 5 5 6-8 5-4h9l8 6-2-7-1-4v-25l3-14 8-17 7-11 9-10 9-8 20-11 17-5h4l-5-9 1-6 7-8z" fill="#33A685"/>
<path transform="translate(379,738)" d="m0 0 9 1 6 5 4 7v7l-4 7-6 5h-2l10 10 3 5-2 9-7 8-3 2-6 1-7-3-8-8h-4l-2 5-6 5v2l8 6 5 7-2 5-4 8-7 5 6 7 4 5 4-2 5-6 7-4 9 2 7 8 1 2 4-2 6-7 6-3 9 2 8 8 2 6-3 10-4 5-7 4-8-1-7-6-5-5-10 11v2l8 6 2 4v7l-3 7-8 7-6 1-7-3-6-6v-2l-5-1-4 7-5 6 6 4 5 8-1 9-8 9-3 3 5 2 6 8 1 4-2 9-8 7 1 4 5 5 2 3 4-1 7-7 4-2h9l8 7 3 5 1 6-5 10-5 4-8 2-7-3-7-8-3-1-6 8-3 3 1 3 6 5 3 3 1 7-5 10-7 6 8 7 3 3 4-2 6-7 4-2h6l9 6 4 7 1 6-4 7-5 5-4 3h-8l-10-9-4-2-7 8-2 1 1 4 6 5 4 6v5l-6 9-7 6-10-1-9-8-4-8 3-6 5-6 6-4-4-4-7-6h-3l-7 8-4 2h-8l-7-5-4-6-3 1-6 7-5 3h-7l-6-3-5-5-3-6v-6l5-8 5-4 4-2h7l6 4 6 7v2l3-3 6-7 2-1-2-4-5-5-3-6v-7l3-6 6-5h2l-3-5-6-5-3-9 2-7 4-5 5-3h2v-2l-4-2-6-5-3-7 1-6 5-8 6-4 9-1 8 6 3 5 4-1 4-5 6-3-1-3-7-5-5-8v-6l7-8 5-3h2l-5-5-8-9-2-4 1-5 6-7 6-4-2-4-4-2-3-5-4-2-2 5-4 5-7 3-6-1-8-6-2-5-4 1-6 8-4 2h-9l-6-3-5-6-2-6 1-7 6-8 7-4h7l6 4 6 8h2l4-6 6-5-3-3-5-4-3-6v-9l5-7 8-5h8l8 7 3 4 4-2 4-5 4-2v-3l-7-5-4-6-1-7 3-5 9-8 2-1h8l8 7 2 3 5-1 4-5 5-4-9-8-3-5v-8l9-10z" fill="#030605"/>
<path transform="translate(580 1e3)" d="m0 0 6 1 5 4v2l3 1 4 4 5-5 6-5 2-1 9 1 9 7 3 6-1 8-7 8-5 2 4 5 5 5 4 3 9-10 3-2h6l8 4 5 6 2 4-1 7-4 6-6 5 1 4 7 6 3 5-1 7-6 9h-2v2l-2 1v3l5 3v2h2l5 9-4 8-3 5-5 3 2 4 7 8 4-2 7-7 5-3 5 1 7 4v2h2l6 9-2 6-4 6-9 8-6-1-8-5-5-7-10 10h-2l3 5 7 6 2 10-6 8-7 6-9-1-8-6-2-3-4 1-9 9 9 9 2 3v7l-4 8-7 5-1 2 4 2 7 8 4-2 6-7 6-3 6 1 6 4 6 7 3-1 4-6 5-4 6-1 7 3 2 4 3 1 5 8-1 6-8 9-5 2 5 5 6 7 3 5-2 5-6 8-4 4-6 1-7-2-8-8-3-6 1-5 4-6 8-6v-2l-9-6-2-3h-3l-4 7-7 4h-7l-9-7-3-4v-2l-5 5-4 5-4 1 4 5 6 5 2 5-1 7-3 6-8 7h-7l-7-4-6-7-1-3v-7l6-8 5-4-1-3-7-5-3-5v-7l3-7 6-5h2l-2-4-6-5-3-6v-9l6-7 5-2v-3l-8-6-3-6v-8l4-6 6-5 4-2 9 1 9 10 3 1 2-4 7-6-1-4-6-4-4-7v-7l4-7 7-5-2-4-7-6-2-5 1-8 7-8 3-1-1-4-7-6-3-6v-6l6-8 5-4-2-4-8-8-3 1-5 7-7 4-7-1-5-3-5-7-5-1-2 5-6 4 1 4 10 9 1 7-4 7-7 6-1 4 5 3 6 7 1 5-4 8-5 6-5 3-8-1-5-3-6-8-5 5-5 4-4 1 4 4 6 5 4 7-1 6-6 9-5 3 5 5 4 5 3 9-4 8-7 6h-2l3 3 6 4 3 6v7l-3 7-5 5-4 2h-9l-6-3-5-6-2-4v-8l5-8 7-4-9-7-3-7v-7l6-9 6-2v-3l-5-2-6-7-1-2v-7l5-8 5-4 2-2-10-9-2-2-9 10-5 3-5-1-8-5-4-6-4 1-4 6-7 4h-6l-8-5-4-5-2-4v-7l6-9 8-5 7 1 8 6 5 5 8-10 4-2h7l6 4 7 8h2l4-6 6-5 7-1 6 3 7 8 5-1 4-6 3-1-1-5-6-4-3-10 1-5 4-6 6-5v-2l-8-5-3-6v-8l4-6 7-6-5-5-6-8v-9l9-10z" fill="#030605"/>
<path transform="translate(373,305)" d="m0 0h17l15 2 20 6 16 8 11 7 11 10 5 5 8 9 10 16 8 20 3 13 2 21-2 21-5 19-10 21-12 16-13 13-13 9-16 8-15 6-14 3-18 1-21-2-17-5-12-5-11-6-14-10-14-14-11-16-7-14-5-15-3-15-1-11v-12l3-19 6-18 8-16 7-10 9-10 10-10 10-7 16-9 14-5 16-4zm0 34-15 3-13 5-14 9-11 10-8 11-6 10-4 10-3 16v20l4 16 8 17 11 14 10 9 15 9 14 5 13 2h15l17-3 16-7 11-7 10-9 7-9 8-14 5-15 2-12v-16l-4-18-8-17-9-12-9-9-13-8-12-6-18-4z" fill="#020403"/>
<path transform="translate(1238,305)" d="m0 0h18l17 3 21 7 15 8 13 10 10 9 13 17 9 17 6 18 3 20v15l-2 16-5 18-9 19-12 16-14 14-13 9-17 9-18 6-9 2-11 1h-12l-17-2-20-6-16-8-11-7-10-8-7-7-13-17-8-15-6-18-3-16v-28l4-18 6-16 10-18 11-13 9-9 12-9 16-9 13-5 18-4zm-1 34-15 3-12 5-11 6-11 9-10 12-8 14-5 15-2 12v16l4 17 6 14 9 13 8 9 14 10 12 6 14 4 6 1h18l16-3 12-5 11-6 11-9 10-11 9-16 4-13 2-11v-21l-4-16-8-16-8-11-10-10-14-9-11-5-18-4z" fill="#020403"/>
<path transform="translate(376,1170)" d="m0 0h12l16 2 15 4 16 7 11 6 13 10 13 13 9 13 9 17 5 16 3 16v27l-4 20-8 20-10 16-12 13-8 8-10 7-19 10-18 6-20 3h-12l-21-3-17-5-16-8-11-7-10-9-5-5-10-11-8-13-7-16-4-13-3-20v-13l2-16 4-16 12-25 9-11 9-10 11-10 12-8 20-9 16-4zm-2 34-16 3-15 6-12 8-11 10-8 11-6 10-5 15-2 10v20l3 14 6 15 7 11 12 13 11 8 14 7 13 4 7 1h19l18-4 12-5 13-9 11-10 9-13 6-13 4-16 1-5v-17l-4-18-8-16-6-9-8-9-12-9-12-7-12-4-12-2z" fill="#020403"/>
<path transform="translate(879,1170)" d="m0 0 7 1 9 8 3 4v6l-6 9-6 5 1 3 8 7v2l5-2 7-8 3-2h8l7 6 3 5 4 1 6-8 5-4h7l6 4 6 7 2 5-1 7-7 8-8 4-7-2-5-4-4-6h-4l-2 4-4 5-3 3 8 7 4 6v6l-4 6-7 6-1 3 4 2 6 6 2 5-1 7-7 8-4 4 10 9 2 3-1 8-6 9-5 5 8 6 4 7-1 7-7 9-6 4h-6l-6-4-8-9-1-4 3-8 7-7 2-1-2-4-5-5-6-4-2 6-5 4-6 3-9-3-7-8-3-1-7 8-4 2 5 5 6 7 1 2v7l-6 9-5 3 2 4 6 5 3 4 9-10 4-2 9 1 8 7 4 7-1 5-5 8-6 5-7 1-7-3-8-9-3 3-6 7-4 2h-7l-7-4-5-7h-3l-6 8-5 3-9-1-6-4-5-8-1-7 6-9 6-5-1-2-5-3-4-5-4 1-7 8-3 2-9-1-8-6-5-9 1-7 5-6 5-3h2v-3l-4-2-7-7-2-5 1-5 5-8 8-6 5-1 6 3 8 9 4-1 8-9v-3l-4-2-5-5-2-8 3-8 8-7-1-3-10-8h-3l-1 4-9 7h-6l-8-5-6-9-1-6 6-8 6-5 2-1h7l6 4 5 6 4 1 8-9 6-3 7 2 7 6 4 7v6l-4 6-7 6 2 4 7 7 3 8-3 6-4 5-5 4 2 4 8 7 3 1 2-4 5-6 3-2h9l6 5 4 5v2l4-2 7-8 4-2 9 1 8 7 2 3 4-1 4-6 4-2-2-4-6-5-4-9 2-5 6-8 4-2-1-4-6-4-4-7v-7l4-6 7-6-2-4-6-5-1-2h-4l-4 6-8 5-7-1-7-5-5-7-1-9 13-13-9-7-3-4-1-3v-7l7-7 5-4z" fill="#030605"/>
<path transform="translate(543,871)" d="m0 0h9l9 7 6 10-8 11-6 5-1 2 6 2 4 5 2 5h2l-1 4-4 9-6 5h-2l2 4 7 6 1 2 4-1 4-5 8-5 8 1 10 10 2 1 4-6 6-4-1-3-7-6-4-7 1-6 6-8 7-5h7l6 4 6 7 1 9-3 6-8 7v2l7 5 5 5 8-9 7-3 5 1 5 3 6 7 4-1 4-5 7-5 8 1 8 7 5 7-1 5-6 8-7 6-5 1-7-3-8-9-3 1-4 6-4 3h-2v2l4 2 8 9 1 6-5 9-7 6-6 1-8-4-8-10-1-3 4-9 4-4 4-3-2-4-6-5-1-5-5 5-9 8-7 1-8-6-4-5-4-1-6 8-6 4-7-1-8-6-5-5-4 4-7 8-9-1-7-4-4-6v-2l-5 5-8 7 5 4 6 7 1 2v7l-4 6-8 7 12 12v9l-7 8-5 5 11 10 2 5-3 8-4 5-7 5h-7l-8-5-3-4v-2l-5 1-6 7-5 3-9-1-7-6-3-5h-3l-2 5-5 5-4 2h-7l-9-6-4-5-1-3v-7l6-8 9-5 8 1 8 7 2 3 3 1 2-5 7-6 2-1 9 1 7 6 3 4h3l5-7 5-4-8-7-3-5-1-7 4-7 7-6-1-3-5-3-4-6-5 5-6 5-7 2-7-3-7-7-1-2-4-1-1 5-5 5-6 3-9-2-9-10-1-2v-9l5-6 7-4-1-3-8-6-3-5 1-9 4-6 10-6 8 1 7 6 3 6 3 3-5 10-8 7 1 3 7 5 1 4 5-2 6-7 3-2h9l6 4 3 3v2h2v2h4l2-5 6-5-1-4-7-6-3-6 1-8 2-3h2v-2l7-5-4-4-5-4-2-3-4 2-6 7-6 3-6-2-6-4-6-7-1-2v-6l4-6 8-7 3-2 7 1 6 4 6 9 2 1 1-5 6-7 6-3 7 1 7 6 4 5 3-1 4-6 6-2-4-5-6-5-3-5v-7l6-8z" fill="#030605"/>
<path transform="translate(1176,571)" d="m0 0h8l7 6 3 5 5-1 7-8 4-2h8l8 8 2 3 4-1 7-8 4-2h7l5 3 7 9h2l6-8 6-4h7l5 3 3 3v2h2l2 4 2 1 2-5 8-7 9-1 9 6 5 9-1 7-4 6-6 5h-2v2l5 2 6 7 2 5-1 6-6 8-7 5-8-1-9-7-4-8 1-6 6-8 5-3-2-4-8-7-3-2-2 5-5 5-5 2h-6l-7-4-5-7-3 1-7 8-3 1 5 5 7 9-1 9-2 4-8 6-1 3 4 2 4 3v2h2l2 4v7l-5 8-6 4 1 4 7 6 3 5-1 7-6 9-5 3-7 1-6-3-7-8-2-3v-6l4-6 6-5 2-1-2-4-5-4-5-5-2 1-3 6-9 5-6-1-6-4-7-7-2-1-2 6-5 5-2 1h-11l-7-7-5-8 2-6 6-8 4-3v-3l-6-4-3-4v-2l-4 2-7 8-7 4-6-2-7-7-5-7 1-7 9-10 5-3h6l5 3 7 9 3-1 4-6 5-3-1-3-6-5-5-10 2-5 3-5z" fill="#030605"/>
<path transform="translate(879,937)" d="m0 0 6 1 9 7 2 5v1l3 1-2 6-4 6-6 5 1 5 8 7 4-1 5-6 5-3h8l6 4 7 9 1 6-6 8-4 3h-2l1 5 7 8 4 1 9-10 5-2 5 1 8 6 6 9-1 5-6 8-9 6-7-1-9-8-1-2h-4l-4 6-5 4-1 2 5 2 7 8 2 3-1 4-6 9-8 6h-6l-6-4-7-7-2-6 3-7 5-5 4-3 1-3-4-2-8-9v-9l7-8 6-2-12-12h-4l-2 5-9 6-9-2-9-9v-2h-2l-2 4-8 8-1 2 5 2 8 9v3h-2v6l-5 7-8 5-7-1-6-4-6-6-4 2-6 7-4 2-8-1-9-8v-2h-6l-2 6-7 5-4 1-8-4-7-7-4-8 3-5 6-7 5-2-2-5-6-4-4-4-7 8-7 4-9-2-9-10-2-1-2 4-8 7-5 2-6-1-5-4-6-9-1-7 6-8 9-6 9 2 5 4 4 6h3l4-6 5-5 8-1 7 4 6 8 3-1 7-8 4-3h7l5 3 7 8 5-1 4-6 6-4 9 1 7 7v2h2l1 2h2l6-8 5-3 7-1 5 3 7 8 4-2 8-6h2l-3-5-8-7-3-9 7-8 7-6z" fill="#030605"/>
<path transform="translate(1130,1125)" d="m0 0 10 10 4 2h7l10-10 1-2h2l6 8 10 4 5-1 7-6 2-4 5 1 6 7 4 4-9 7-3 7 1 6 4 7 6 5-1 3-6 4-3 5-1 7 4 8 7 6v3l-6 4-6 9 3 9 9 8-2 4-5 5-5 4-10-10-3-2-8 1-8 7-3 4-4-2-6-7-5-3h-6l-8 7-5 5-5-5-7-6-2-1h-6l-9 8-3 3-4-1-6-7-3-2 2-4 5-2 2-5 3-8-7-10-5-4 2-4 5-4 5-9-1-4-6-8-6-5 9-9 5-11h-2l-4-6-7-6v-3l7-6 3-4 4 1 6 7 8 4 4-1 8-7z" fill="#FEFEFE"/>
<path transform="translate(1143,837)" d="m0 0h6l6 4 4 4v2l3 1v2l5-5 9-8 8 1 5 3 6 8 1 5 2 1-6 10-7 5 6 7 5 7 1 4-5 10-5 5-1 3 5 3 3 6 5-1 7-8 6-3 7 1 7 8 2 3 4-1 6-7 2-1-1-4-7-6-3-6 1-6 6-9 6-4h9l8 7 4 6 1 4-5 10-5 4h-2v4l6 4 4 6h3l2-5 8-7 5-1 7 3 7 8 2 5-1 6-5 8-6 5-5 1-8-4-7-8-3-1-2 5-7 6v2l7 5 4 6v8l-4 6-6 5h-2l3 5 8 8 3 1 2-5 8-7h8l7 4 6 9 1 4-5 9-7 6-2 1h-8l-8-7-5-4-9 10-2 1h-9l-6-4-5-6-4 1-6 7-4 2h-8l-6-4-7-8-2-6 7-9 8-6h9l8 7 3 4 3-1 4-6 5-2-3-5-7-8-2-4 1-6 3-5 6-5 2-1-2-4-5-4-4-4-3 1-7 8-4 3-5-1-8-5-7-6-12 12 4 2 7 7 2 8-5 8-8 7-3 1-9-3-8-9-2-4 1-5 6-9 5-4-1-3-6-4-5-5-2 5-8 6-8 2-8-6-5-6-1-9 5-8 7-6 7-1 8 6 6 6v3l4-7 4-4 3-1-2-4-7-8-4-7 6-9 7-6-2-4-6-4-2-3h-3l-5 7-5 3h-9l-8-6-5-9 1-5 6-9 5-4z" fill="#030605"/>
<path transform="translate(778,1070)" d="m0 0 9 1 11 11 10-11 3-1h7l8 7 3 4 4-1 4-5 7-5h7l4 2 8 10 2 1 2-4 4-5 4-3 9-1 5 3 5 5 4 6v5l-6 9-7 6h-8l-5-3-5-5-5-4-2 5-7 6-4 2-5-1-7-4-5-6v-2l-5 5-7 6-1 3 4 2 7 6 1 7-3 8-8 7-1 3 4 2 8 8h2l2-5 7-6 2-1h7l5 3 7 8 1 7-5 10-7 6h-8l-8-6-4-5h-3l-4 6-6 3v2l8 7 5 8-1 5-6 8-7 5-10-1-9-9-3-1-6 8-5 3h-8l-10-8-4-8 1-6 5-6 10-6 9 2 7 7 1 2 4-1 5-6 3-3-2-4-5-4-4-7 1-7 3-5 8-7-5-4-5-6-4 1-3 5-9 5-6-1-6-4-5-6-4-1-2 5-7 6 5 5 4 5 1 4h2l-1 6-5 8-6 5-3 2-6-1-9-7-6-8 2-9 8-7 3-2-1-3-7-5-4-7v-6l7-8 6-5 6-1 6 2 8 9 4-1 5-6 2-1-1-5-8-7-2-5v-5l12-13z" fill="#030605"/>
<path transform="translate(844,305)" d="m0 0h7l7 4 5 6v3h2l2-6 6-5 5-2 9 1 7 6 4 8-1 6-4 6-5 4-2 1 2 4 7 6 3 3 2 1 1-5 9-8 6-1 6 4 7 8v2l5-4 6-7 5-3h5l8 7 4 4v2l4-2 7-8 4-2h7l8 7 4 5 3 6-8 11-4 3 1 4 9 10 1 5-5 10-7 6-6 1-9-4-7-8-9 9-2 1 1 3 6 5 3 6v7l-3 6-8 7-2 1h-6l-8-6-6-8-1-3 5-10 6-5h2l-3-5-5-4-1-4-5 2-6 7-10 3-6-3-7-7-2-3v-7l6-10 4-3h2v-3l-5-2-5-5-4-1-4 6-7 4-9-1-6-4-5-7-1-8 6-8 6-4-2-4-5-3-5-5-6 8-6 3h-7l-8-4-5-8v-10l4-7 6-4z" fill="#030605"/>
<path transform="translate(373,1237)" d="m0 0h16l11 3 11 6 10 9 7 11 3 8 1 6v13l-3 12-6 12-9 9-11 7-9 3-5 1h-14l-11-3-10-5-10-9-7-10-4-10-1-5v-15l3-11 5-10 9-10 8-6 12-5z" fill="#020303"/>
<path transform="translate(373,372)" d="m0 0h17l13 4 11 7 8 8 7 12 3 12v13l-3 12-5 10-9 10-9 6-9 4-8 2h-13l-12-3-11-6-10-9-7-11-4-13v-16l4-13 6-10 9-9 9-6z" fill="#020303"/>
<path transform="translate(1238,372)" d="m0 0h16l13 4 10 6 8 7 7 11 3 8 1 6v16l-4 13-7 11-8 8-10 6-9 3-6 1h-12l-12-3-14-8-7-7-8-14-3-11v-12l2-10 8-16 8-8 13-8z" fill="#020303"/>
<path transform="translate(943,671)" d="m0 0h8l8 6v2h2l4 8-2 6-4 6-7 5 5 5 8 10-1 6-6 9-6 3 5 5 6 7 2 7-6 10-6 4 2 4 5 5 2 5 5-5 8-7 2-1h8l6 5 7 10-1 4-7 11-7 4-8-1-6-4-4-6-4 1-4 6-6 4h-8l-6-4-5-7h-4l-5 8-7 4-6-1-6-4-5-7-2-9 5-8 6-4-2-4-7-7-4-1-4 6-5 4-2 1h-7l-6-4-6-7-2-5v-5l6-8 6-4v-2l-8-6-4-8v-5l6-9 8-5h7l6 3 8 11-1 7-3 6-5 4-3 3 10 10h4l4-6 6-4h9l5 5 5 6h3l6-8 3-2 1-3-4-2-6-6-1-3v-9l7-8 3-2-2-4-6-5-2-5v-8l5-8z" fill="#030605"/>
<path transform="translate(1342,1237)" d="m0 0h9l8 6 4 7v7l-3 6-6 5-3 3 5 3 6 7 1 2v8l-4 7-8 5 4 4 5 4 3 6-1 9-6 8-5 3-6 1-8-4-6-8-4 1-4 6-7 4h-8l-8-7-6-5-2 5-6 5-8 3-7-4-7-7-4 1-9 11 5 2 6 7 1 2v6l-5 8-7 6-2 1h-6l-10-9-4-6v-6l4-6 8-6-5-6-4-4-1-2h-3l-4 6-5 4-2 1h-7l-6-4-9-9-1-4 6-10 7-6 9-1 5 3 7 8 4 1 2-4 5-6 3-2h8l6 4 5 6v2h3l6-8 4-4-8-7-4-7 1-6 7-9 6-4h7l9 7 3 5 2 6-5 9-6 5h-2v3l5 2 6 7 3 1 2-4 5-5 4-3h8l7 5 2 3v3l5-1 5-6 5-3-10-10-2-4v-7l4-6 5-4 3-3-10-9-2-4v-6l6-9 5-4z" fill="#030605"/>
<path transform="translate(1344,770)" d="m0 0 7 1 8 7 4 7v7l-4 6-6 5-2 2 8 6 4 7-1 9-7 8-4 2 8 7 4 7v7l-4 7-8 5-1 2 5 2 8 9v7l-4 8-8 6 10 10 2 3v7l-4 7-8 6-1 2 5 2 4 4v2h2l3 5v5l-9 10-4 4 10 9 3 7-3 7-7 8-9 3-8-4-8-10-1-5 4-7 7-6 3-3h-2l-10-10h-3l-4 7-6 4-5 1-7-3-8-9-3-8 7-9 7-5 5-1 7 2 7 8v3l5-3 4-5 5-5-9-8-3-6v-6l6-8 5-3-2-5-6-5-2-5v-8l3-5 8-7-3-3-6-5-3-3-3 3-4 5-5 3h-8l-9-6-5-9 2-8 7-8 4-2h10l7 6 5 5 5-7 5-3-1-3-8-7-2-4v-9l7-8 6-2v-2l-4-2-5-4-4-7v-7l7-9z" fill="#030605"/>
<path transform="translate(279,604)" d="m0 0 9 1 7 6 3 5 1 8-3 7-8 6 6 7 4 6 1 7-4 8-7 5-1 3 4 2 5 5 1 3 5-3 6-7 4-2h7l4 2v2l4 2 6 8-1 5-4 8-7 6 5 5 6 7 10-10 6-3 9 4 2 4h2l5 8-3 9-4 6-8 5-8-2-5-3-5-7h-2l-4 6-6 4v2l8 7 3 5v6l-4 8-8 6-7 1-7-4-7-9-1-2v-6l6-8 4-3h2l1-4-5-2-5-5-1-3-5 4-6 7-8 2-8-4-6-6-2-8 3-9 6-5 3-2-9-8-3-6 1-9 7-8 4-3-9-7-3-8 1-8 6-7 5-4-8-5-3-5-1-8 4-8 6-5z" fill="#030605"/>
<path transform="translate(546,338)" d="m0 0 8 1 8 7 3 3 7-8 7-3 9 1 7 6 3 6v9l-4 7-8 5h-9l-7-4-4-6-3 1-6 7-4 3 8 5 4 6v7l-4 9-6 4h-2v2l5 2 5 6 2 5-1 9-5 7-6 2 9 9 1 4 5-5 6-5 5-2 9 1 7 6 3 6v8l-3 6-8 6-7 1-8-3v-2l-4-2-3-3h-2l-4 6-5 5 8 6 3 7-1 8-6 8-5 2 3 3 6 5 3 7-2 10-7 8-7 2-6-1-7-4-4-6-1-4v-7l5-8 7-4-8-5-4-9 1-9 4-6 7-3-10-10-2-8v-5l8-9 4-2 1-2-5-1-5-4-3-7v-7l4-8 7-4-5-4-5-7-1-3v-7l4-8 7-4 1-2-4-2-5-4-3-8 1-8 4-6 6-4z" fill="#030605"/>
<path transform="translate(647,803)" d="m0 0 7 2 5 5 5 6v2h2l-3 9-4 6-4 3h-2l3 5 5 4 4 4h2l2-4 5-5 4-3 9 1 7 7 5 9-2 6-5 6-5 4 2 4 5 4 5 5 6-8 5-4h9l8 6 4 9 1 4-3 5-4 5-6 4 4 4 5 4 4 7-3 9-6 7-8 4-6-2-5-4-7-9 1-7 4-6 5-4 2-1-2-4-7-8-4-1-4 6-5 4-6 2-7-2-10-10-4 5-6 5-5 2-6-1-8-7-6-9 2-6 4-5 6-4h2l-1-4-6-4-6-7v-7l7-9 5-3 1-3-5-2-6-7-3-7 6-9 9-7z" fill="#030605"/>
<path transform="translate(1143,671)" d="m0 0 8 1 6 4 6 7 1 6-4 8-8 7-1 2 5 2 7 9 1 6-5 8-6 5h-2l7 8 3 4v2l5-3 5-6 4-3h9l6 4 6 8v9l-6 8-5 5 2 1v2l4 2 7 9-6 12-5 5-4 2-8-1-8-6-3-4-4 2-5 6-6 3-8-1-5-3-5-7-1-3v-8l6-8 5-3 1-2-4-2-5-4-3-6v-7l5-8 4-3h2l-1-4-8-7-2-5 1-9 7-8 4-1-5-5-5-6-3-5 1-6 7-9z" fill="#030605"/>
<path transform="translate(345,571)" d="m0 0 9 1 7 5 5 10-3 10-8 7h-2l9 9v2h5l8-9 3-2h8l8 7 1 4 5 1 9-10 2-2h7l8 6 5 6 1 6-4 9-7 6 2 4 5 4 4 8-1 6-4 7-8 6-9-1-9-8-3-5 1-9 5-6 5-3-1-4-7-6-1-4-4 2-4 6-7 5-8-1-8-7-4-4h-3l-1 5-5 4-2 1 1 3 8 7 3 4v5l-6 10-6 5-9 1-9-7-5-7v-7l6-8 6-3-1-4-8-6-3-6 1-7 6-8 5-3v-2l-8-6-3-6v-9l4-6 6-5z" fill="#030605"/>
<path transform="translate(412,704)" d="m0 0h7l6 4 6 8 2 1 2-4 4-5 7-4h7l8 7 3 5 4-2 6-7 5-3h6l8 6 6 8-1 8-9 10-4 3-7-1-8-6-4-5h-4l-2 6-6 4 2 4 7 6 2 5 1 4-7 11-5 3 2 4 6 5 1 4h4l2-4 4-5 5-3h8l8 7 4 5v8l-3 6-7 6-5 2-6-1-5-3-6-7-4 1-4 6-6 4-4 1-9-5-6-7-3-6 1-6 8-7 4-4-1-3-5-2-6-8-1-5 7-10 6-4 1-3-5-2-6-7-3 1-7 8-5 3h-6l-9-7-6-8 1-7 7-8z" fill="#030605"/>
<path transform="translate(775,809)" d="m0 0h77l1 1v17l-1 1h-29l1 7-1 5 25 2 13 4 6 4-1 5-8 5-9 3-13 2h-12v40l-1 1h-20v-40l-19-2-17-4-8-4v-6h2v-2l11-4 17-3 13-1v-12h-24l-5-2v-15z" fill="#FEFEFE"/>
<path transform="translate(531,593)" d="m0 0 3 1 5 7 7 3h6l6-4 4-5 5-1 6 7 4 4-10 10-3 6 2 5 4 6 9 6h6l7-6 5-5h3l6 7 3 3-1 4-6 5-3 7 1 7 9 10v3l-5 4-4 5-4 1-5-7-5-4h-8l-6 4-6 7-4-1-7-8-2-4 9-8 3-6-1-5-6-8-5-4-10 1-7 6-3 4-4-1-3-4v-2l-4-2-3-2 1-3 8-6 3-6-2-9-5-5-5-4v-2l6-4z" fill="#FEFEFE"/>
<path transform="translate(679,1336)" d="m0 0 7 1 7 6 4 5 3-1 5-7 6-4 8 1 10 9 2 4v7l-4 6-5 5-4 3h-7l-7-5-5-7-3-1-2 5-8 7 8 7 4 7-1 7-4 7-6 5-7 1-7-3-5-5-2-3h-3l-6 8-5 3-10-1-7-6-4-7v-7l6-8 7-5h7l7 4 5 7h3l4-6 4-3h2l-1-4-6-4-3-4-2-5 1-7 7-8z" fill="#030605"/>
<path transform="translate(966,33)" d="m0 0 12 2 7 5 6 10 3 14v14l-3 14-6 10-5 4-9 3-11-1-6-4-7-8-4-12-1-8v-10l3-16 6-10 5-4 4-2z" fill="#040907"/>
<path transform="translate(753,34)" d="m0 0h12l21 1 10 4 7 8 3 8-1 10-3 6-8 7 2 5 13 18 3 7-16-1-6-7-10-15-1-2-10-1-2-1v26l-5 1h-9l-1-1v-72z" fill="#040907"/>
<path transform="translate(1113,1336)" d="m0 0 7 2 6 5 4 6v8l-6 9-4 3h-2v2l5 2 6 8 1 9-3 6-5 5-6 3-8-1-5-3-7-8-5 8-8 4-9-1-7-6-4-8v-6l6-8 5-4 9-1 6 3 7 8 5-5 7-5v-2l-8-6-4-7v-6l7-9z" fill="#030605"/>
<path transform="translate(978,1336)" d="m0 0 9 2 7 6 4 7-1 7-5 7-6 4 1 3 8 7 3 7-1 5-4 6-7 6-2 1-10-1-6-5-3-5v-2l-4 4-6 7-4 2-10-1-6-5-5-10 1-6 6-8 7-4 9 1 5 4 5 6 5-5 7-5-1-3-7-5-4-7v-6l7-9z" fill="#030605"/>
<path transform="translate(1010,1303)" d="m0 0h8l8 7 3 5 3-1 5-7 6-4h7l6 4 6 7 2 4-1 6-4 7-6 5h-2l4 4 5 4 3 6v7l-3 6-7 6-4 2-7-1-5-3-6-8-1-8 4-8 7-5-1-3-6-5-2-5-5 3-6 7-9 3-6-3-7-8-2-4v-6l6-9z" fill="#030505"/>
<path transform="translate(580,1336)" d="m0 0 5 1 6 4 6 7h3l6-8 6-4 7 1 8 6 4 6v7l-4 8-8 6-7 1-8-6-5-6-3 1-7 8-2 1 1 3 8 7 2 4v7l-4 7-7 6-7 1-8-3-6-7-1-2v-11l7-8 5-2-9-9-4-7 1-6 7-8z" fill="#030605"/>
<path transform="translate(710,1171)" d="m0 0h10l3 2v2l4 2v2h2l2 4v7l-3 6-8 7-1 3 5 2 7 7 10-10 5-2 7 1 6 5 6 10-1 4-4 8-5 4-7 3-9-3-4-5-2-3h-4l-7 8-4 2h-7l-7-4-6-8-1-2v-6l6-8 4-3h2l-1-4-8-7-3-5v-6l8-10z" fill="#030605"/>
<path transform="translate(550,55)" d="m0 0h13l9 4 7 8 3 7v15l-4 9-9 8-8 3h-10l-10-5-7-8-3-6-1-5v-7l3-9 4-6 7-6z" fill="#040807"/>
<path transform="translate(845,33)" d="m0 0h8l8 2 9 6 6 7-1 4-8 5-4-1-7-6-2-1h-11l-6 4-5 8-1 4v12l3 8 6 7 5 2h8l6-4 4-4 7 1 5 4-1 6-8 7-12 5h-9l-11-4-8-6-7-8-4-10v-19l4-11 4-6 8-7 9-4z" fill="#040908"/>
<path transform="translate(903,33)" d="m0 0h9l8 3 5 4 4 7 1 2v12l-6 12-12 14-5 5-1 3h28l-1 12h-48l-3-2 1-6 8-11 11-12 9-11 3-7-1-8-2-1h-10l-4 5-2 3-7-1-5-5 2-6 4-5 10-6z" fill="#030706"/>
<path transform="translate(1230,592)" d="m0 0 2 1 3 5 7 6-1 3-6 4-4 6-1 6 3 6 9 9-5 5h-2l-2 5-2 2h-3l-7-9-10-2-6 3-8 8-4-2-5-6-4-4 8-7 4-11-4-8-7-5 1-4 5-4 3-5 5 1 2 4 12 6 4-1 7-5z" fill="#FEFEFE"/>
<path transform="translate(563,693)" d="m0 0 5 3 7 6 5 3 6-2 6-4 3-6 5 1 5 6 4 3v4l-4 2-5 6-2 5 1 5 6 8 5 5-8 8-3 4-4-2-7-8-10-1-8 6-5 5-5-5-7-6 1-3 6-4 4-8 1-4-6-9-7-5v-2l7-5z" fill="#FEFEFE"/>
<path transform="translate(1078,371)" d="m0 0 9 2 7 5 3 6v9l-6 9-6 3 4 3 5 4 3 6-1 9-4 7-6 4-3 1h-7l-6-4-6-7-2-7 3-7 4-5 5-3h2v-2l-5-2-6-5-2-5v-7l5-8 5-4z" fill="#030605"/>
<path transform="translate(1342,638)" d="m0 0h8l6 3 6 7 1 3v8l-4 7-7 5 5 4 4 5 2 8-2 8-5 6-7 3-9-1-6-4-4-7-1-9 4-7 8-6-8-6-3-4-1-9 4-8z" fill="#030706"/>
<path transform="translate(280,1103)" d="m0 0 7 1 6 4 5 7h2l6-8 6-4h6l8 5 4 5 2 4-1 8-3 6-7 6-8 1-8-4-4-5-1-4-4 4-5 6-6 3-9-1-8-7-3-7 1-8 6-8z" fill="#030605"/>
<path transform="translate(380,1103)" d="m0 0 7 1 8 7 2 4 3-1 6-7 7-4 7 1 8 6 3 5 1 9-4 7-6 5-5 2-8-1-8-7-3-4-5 8-9 4-7-1-5-3-5-6-2-4 1-9 7-8z" fill="#030605"/>
<path transform="translate(441,34)" d="m0 0 57 1 1 4-1 8-1 1h-21l1 6-1 53h-14l-1-3v-56h-21l-1-1v-12z" fill="#040908"/>
<path transform="translate(912,1103)" d="m0 0 6 1 10 8 3 5v6l-5 8-5 4-2 1v2l8 7 3 4 1 7-3 5-5 6-6 4h-7l-10-9-3-5v-8l7-8 5-3 1-2-4-2-6-5-3-6v-6l6-8z" fill="#030706"/>
<path transform="translate(598,55)" d="m0 0 7 1 2 5 4-2 7-4h9l8 4 5 6 2 10v19l-1 13h-12l-1-1-2-32-3-5-6-1-5 2-3 5-1 6-1 25-1 1h-12l-1-3v-42l1-6z" fill="#050C0A"/>
<path transform="translate(741,34)" d="m0 0 3 1v12l-1 1h-21v25l-1 33-7 2h-7l-1-59-21-1-1-3 1-10z" fill="#030605"/>
<path transform="translate(1e3 26)" d="m0 0h7l6 2 7 10 5 11 3 12v22l-4 15-7 14-6 6-5 1h-8l1-4 7-10 5-14 2-13v-11l-2-12-4-11-6-12-3-5z" fill="#040A08"/>
<path transform="translate(670,27)" d="m0 0h14l-2 4-6 9-5 12-2 11v20l4 14 7 17 3 3-1 3-12-1-4-4-8-16-4-12-1-18 2-14 5-14 6-9z" fill="#040A08"/>
<path transform="translate(496,55)" d="m0 0 10 1 3 4 4-2 4-3h10l4 2-1 7-4 4-10 1-4 3-2 6-1 28-3 2-11-1v-51z" fill="#040908"/>
<path transform="translate(1087,53)" d="m0 0 5 2 11 10 11 9 8 8 4 1 15-13 14-12 6-5 5 1 2 2-1 5-10 9-22 18-10 8-8-6-13-12-14-11-8-7 1-4z" fill="#050D0A"/>
<path transform="translate(797,843)" d="m0 0h5l1 5v9h20v-12l1-1h9l19 3 7 3v4l-10 4-20 3h-24l-21-2-13-3-8-4v-2l10-3z" fill="#32A382"/>
<path transform="translate(646,338)" d="m0 0 10 2 5 4 4 11-3 9-5 6-5 2h-8l-6-3-6-7-1-3v-9l4-6 5-4z" fill="#030505"/>
<path transform="translate(1078,305)" d="m0 0 10 2 6 5 3 7-1 9-4 6-8 5h-8l-7-4-5-7-1-9 4-8 5-4z" fill="#030504"/>
<path transform="translate(1342,1370)" d="m0 0h9l8 6 4 8-1 9-5 7-8 4-9-1-6-4-4-7-1-7 3-7 4-5z" fill="#030806"/>
<path transform="translate(546,1303)" d="m0 0 7 1 7 4 4 7 1 7-3 7-4 5-5 3h-8l-8-4-6-9v-8l5-8 7-4z" fill="#040907"/>
<path transform="translate(1275,1370)" d="m0 0h8l9 6 4 7v8l-4 7-9 6h-7l-7-4-6-8-1-9 6-8z" fill="#030807"/>
<path transform="translate(1343,1170)" d="m0 0h7l9 6 4 8-1 9-4 6-8 5h-7l-6-3-6-7-2-4 1-9 7-8z" fill="#030807"/>
<path transform="translate(1075,505)" d="m0 0h9l7 4 4 5 2 4v7l-6 9-6 4-8 1-7-4-6-8-1-2v-7l6-8z" fill="#020404"/>
<path transform="translate(678,405)" d="m0 0 9 1 6 4 5 8v8l-7 9-7 4-8-1-6-4-4-4-2-10 3-8 6-5z" fill="#030706"/>
<path transform="translate(1210,1370)" d="m0 0 9 1 6 5 5 8v6l-6 9-5 4-9 1-6-3-7-8-2-5 1-5 4-6 7-6z" fill="#030706"/>
<path transform="translate(1310,1070)" d="m0 0 8 1 8 7 4 7-1 6-5 8-5 4-2 1h-9l-9-7-3-5-1-6 4-8 8-7z" fill="#030706"/>
<path transform="translate(480,837)" d="m0 0 9 2 5 4 4 9-1 8-4 6-7 5h-8l-8-5-4-5-2-5 1-7 3-5 9-6z" fill="#030605"/>
<path transform="translate(1308,738)" d="m0 0h9l5 3 6 8 2 3v5l-7 10-6 4-4 1-7-2-7-6-4-6v-6l6-9z" fill="#030605"/>
<path transform="translate(877,405)" d="m0 0h7l6 4 7 8 1 7-7 10-7 5h-7l-8-6-4-5-3-5 1-5 10-11z" fill="#030504"/>
<path transform="translate(646,1303)" d="m0 0 7 1 9 8 4 6-2 6-6 9-7 4h-7l-6-4-7-8-2-6 4-6 5-5 5-4z" fill="#030605"/>
<path transform="translate(1310 1e3)" d="m0 0 8 1 9 8 4 7-6 11-7 6-2 1-9-1-8-7-5-7 1-5 6-8 5-4z" fill="#030706"/>
<path transform="translate(679 1e3)" d="m0 0h6l9 7 5 7-1 5-6 10-10 6-8-3-8-8-3-7 1-5 7-8z" fill="#030706"/>
<path transform="translate(1244,737)" d="m0 0 9 2 6 6v2h2l3 7-4 9-5 6-8 3-8-2-8-9-3-5 2-6 7-9z" fill="#030706"/>
<path transform="translate(645,471)" d="m0 0h6l6 4 7 8 1 6-5 10-5 4-7 3-7-2-11-12-1-4 3-6 9-9z" fill="#030605"/>
<path transform="translate(1175,1337)" d="m0 0h9l6 4 7 10-1 5-4 8-7 6-2 1h-6l-9-6-6-9 1-7 7-9z" fill="#030706"/>
<path transform="translate(1211,704)" d="m0 0 7 1 8 7 5 7-2 7-7 9-8 4-5-1-6-4-6-7-2-5 1-5 9-10z" fill="#030807"/>
<path transform="translate(1343,1037)" d="m0 0 8 1 6 4 5 6 1 9-3 6-8 7-2 1h-7l-6-4-7-8-2-5 5-10 8-6z" fill="#030605"/>
<path transform="translate(1210,804)" d="m0 0 8 1 8 6 4 7-1 8-6 8-6 4h-7l-6-3-8-9-1-9 11-11z" fill="#040807"/>
<path transform="translate(1012,404)" d="m0 0 6 1 8 7 5 8-3 9-5 6-6 4h-7l-6-4-6-7-2-6 2-7 7-7z" fill="#030605"/>
<path transform="translate(1243,1070)" d="m0 0h6l9 6 5 8-1 9-7 8-5 3h-7l-7-4-6-8-1-8 7-9z" fill="#030505"/>
<path transform="translate(1146,970)" d="m0 0 7 2 9 9 2 3-1 7-4 7-10 7-7-1-7-5-5-8-1-5 3-6 8-8z" fill="#030605"/>
<path transform="translate(810,505)" d="m0 0h7l8 5 6 8-1 8-5 8-7 5-8-1-6-4-6-7-1-8 6-9z" fill="#030706"/>
<path transform="translate(678,505)" d="m0 0 9 1 7 6 4 6v6l-5 8-7 6-8 1-6-4-6-7-3-5 1-5 7-9z" fill="#030706"/>
<path transform="translate(979,1103)" d="m0 0 7 2 9 8 3 6-3 9-4 5-9 5-6-1-6-4-6-8-1-7 6-9 7-5z" fill="#030706"/>
<path transform="translate(944,1070)" d="m0 0 7 1 6 4 5 4 2 4v7l-5 8-7 6-7 1-8-5-7-10 1-7 4-6 7-6z" fill="#030706"/>
<path transform="translate(677,771)" d="m0 0h7l5 3 6 5 1 4h2l1 4-4 9-4 5-8 4-7-1-8-7-4-5-1-6 6-9z" fill="#030605"/>
<path transform="translate(944,937)" d="m0 0 7 1 6 4 8 9-1 6-5 8-10 7-6-1-8-7-5-7v-6l6-8 5-4z" fill="#030605"/>
<path transform="translate(1044,438)" d="m0 0 10 2 5 5 3 2 2 9-5 10-9 6-9-1-6-5-6-10 1-5 7-9z" fill="#030504"/>
<path transform="translate(1175 1e3)" d="m0 0h8l8 5 5 7v8l-5 8-8 6h-7l-8-6-4-6-2-8 7-9z" fill="#030706"/>
<path transform="translate(644,538)" d="m0 0h7l5 3 7 7 2 4-1 7-6 8-5 4-2 1h-7l-8-6-6-10 1-5 6-8z" fill="#030706"/>
<path transform="translate(1309,1204)" d="m0 0h8l8 7 5 7-1 5-4 8-8 6-6 1-8-5-6-7-3-4 1-4 6-8z" fill="#030605"/>
<path transform="translate(1144,1170)" d="m0 0 8 1 6 5 5 8-1 9-7 8-5 3-9-1-8-7-3-5v-8l6-8 5-4z" fill="#030504"/>
<path transform="translate(1276,771)" d="m0 0h7l6 4 5 5 2 9-3 8-7 6-4 2-8-1-8-7-4-8v-5l8-9z" fill="#030505"/>
<path transform="translate(612,504)" d="m0 0 7 1 10 9 3 7-3 8-5 6-7 4-7-1-6-4-6-8-1-4 2-5 7-9z" fill="#030605"/>
<path transform="translate(712,1037)" d="m0 0 9 2 6 5 4 7-1 8-4 7-8 5h-7l-8-6-6-9 1-6 6-8 3-3z" fill="#030605"/>
<path transform="translate(710,738)" d="m0 0h8l6 4 3 3v2h2l2 4-1 8-4 6-7 6-6 1-5-2-5-5-5-6-1-7 4-6 7-7z" fill="#020404"/>
<path transform="translate(966,47)" d="m0 0 6 1 5 6 2 15-1 14-3 8-4 4-7-1-4-5-2-8v-19l2-9 4-5z" fill="#FEFEFE"/>
<path transform="translate(976,971)" d="m0 0h8l6 4 5 6 3 7-6 10-7 6h-9l-7-5-6-10 1-5 5-8z" fill="#030605"/>
<path transform="translate(810,738)" d="m0 0h8l6 4 6 8 1 2v6l-5 6h-12l-14-1-4-7 1-6 7-8z" fill="#030505"/>
<path transform="translate(554,67)" d="m0 0 8 1 5 5 1 2v13l-6 7-8 1-6-3-3-6v-11l4-6z" fill="#FEFEFE"/>
<path transform="translate(824,844)" d="m0 0h9l19 3 7 3v4l-10 4-20 3h-9l1-2h2v-14z" fill="#34A786"/>
<path transform="translate(767,47)" d="m0 0 16 1 4 2 3 6v6l-5 5-8 2h-9l-1-1z" fill="#FEFEFE"/>
<path transform="translate(1030,1059)" d="m0 0 3 1 4 6 5 4v2l-8 7-4 4-8-8-4-3 1-4 5-3 4-5z" fill="#FEFEFE"/>
<path transform="translate(1228,1226)" d="m0 0 5 1 3 5 6 4-1 3-7 6-2 3-5-1-9-9 2-4z" fill="#FEFEFE"/>
<path transform="translate(1228,1159)" d="m0 0 4 1 5 6 4 3-1 4-6 5-4 4-4-2-8-8 1-4 4-1 2-4z" fill="#FEFEFE"/>
<path transform="translate(797,1325)" d="m0 0 3 1 4 5v2l4 2 2 3-6 4-5 7-4-2-7-7-3-2 1-3 6-4z" fill="#FEFEFE"/>
<path transform="translate(331,825)" d="m0 0 3 1 4 6 6 4-2 5-8 7h-4l-8-7-2-1 1-4 8-7z" fill="#FEFEFE"/>
<path transform="translate(829,1359)" d="m0 0 4 1 10 9-6 7-4 5-5-1-9-9v-3l6-4z" fill="#FEFEFE"/>
<path transform="translate(1062,960)" d="m0 0 4 1 8 7 1 5-6 4-4 5-4-1-3-3v-2l-4-2-3-2 2-4 4-3h2l2-4z" fill="#FEFEFE"/>
<path transform="translate(796,993)" d="m0 0h4l4 6 5 4-1 4-6 5-4 4-7-6-5-4v-4l5-3h2l2-5z" fill="#FEFEFE"/>
<path transform="translate(1031,892)" d="m0 0 2 1 3 5 6 6v2l-4 2-6 7-5-1-5-5-4-3 2-4 5-4 4-5z" fill="#FEFEFE"/>
<path transform="translate(795,1093)" d="m0 0 5 1 9 9-1 4-4 2-5 6-4-1-5-5-4-3v-4l6-4z" fill="#FEFEFE"/>
<path transform="translate(829,993)" d="m0 0 5 1 2 4 6 4v3l-10 10-5-1-5-6-3-2 1-4 4-3h2l2-5z" fill="#FEFEFE"/>
<path transform="translate(928,760)" d="m0 0 5 1 5 6 4 4-5 5-5 7h-3l-5-6-6-5 5-5z" fill="#FEFEFE"/>
<path transform="translate(598,593)" d="m0 0h2l4 6 6 7-8 7-3 4-4-2-6-7-3-2 2-4 5-4z" fill="#FEFEFE"/>
<path transform="translate(830,1325)" d="m0 0 3 1 7 8 3 2-1 3-4 2-6 8-4-2-6-7-3-2 1-3 5-4z" fill="#FEFEFE"/>
<path transform="translate(1030,1225)" d="m0 0 5 5 7 6-1 3-5 4-4 7h-2l-7-8-6-4 8-8z" fill="#FEFEFE"/>
<path transform="translate(1228,1193)" d="m0 0 4 1 8 7 1 5-5 3-3 5-3 1-5-3-5-5-2-4 7-7z" fill="#FEFEFE"/>
<path transform="translate(1062,727)" d="m0 0h3l4 5 7 5-1 3-6 4-5 6-6-5v-2l-4-2-3-2 1-3 8-7z" fill="#FEFEFE"/>
<path transform="translate(730,627)" d="m0 0 5 3 8 7-2 4-6 5-3 4-4-2-2-4-4-2-3-3 1-3 6-4 2-4z" fill="#FEFEFE"/>
<path transform="translate(729,594)" d="m0 0 5 1 6 7 3 2-2 4-4 1v2h-2l-2 4-3 1-8-8-4-2v-2l6-4z" fill="#FEFEFE"/>
<path transform="translate(330,1026)" d="m0 0 5 2 9 8-1 4-10 8-5-2-5-5-3-2 1-3 6-5z" fill="#FEFEFE"/>
<path transform="translate(597,1025)" d="m0 0 4 2 3 5 6 5-5 5-6 7-5-2-4-6-4-2 1-4 5-3z" fill="#FEFEFE"/>
<path transform="translate(363,859)" d="m0 0 5 2 5 5 4 3-1 4-6 5-5 5-9-9-2-4 6-5z" fill="#FEFEFE"/>
<path transform="translate(1162,760)" d="m0 0 4 1 3 5 5 3 1 4-7 5-3 5-4-1-4-5-6-5 2-4 6-4z" fill="#FEFEFE"/>
<path transform="translate(1063,760)" d="m0 0h2l4 5 6 4-1 5-6 4-3 5-4-1-7-8-3-2v-2l8-6z" fill="#FEFEFE"/>
<path transform="translate(1162,1092)" d="m0 0 7 6 6 5-2 4-8 8-4-1-10-9 2-4 5-3z" fill="#FEFEFE"/>
<path transform="translate(1029,660)" d="m0 0 4 1 8 9-1 4-9 9-3-1-5-6-5-4 2-4 6-4z" fill="#FEFEFE"/>
<path transform="translate(1063,1226)" d="m0 0 4 2 8 8-1 4-5 3-5 6-7-6-6-5v-2l6-4 4-5z" fill="#FEFEFE"/>
<path transform="translate(330,959)" d="m0 0 4 2 7 6 3 2v4l-6 3-5 6-4-2-9-8 2-4 5-3z" fill="#FEFEFE"/>
<path transform="translate(663,859)" d="m0 0 4 2 3 3v2l4 2 3 4-7 5-5 6-3-1-3-5-6-5 2-4 5-3z" fill="#FEFEFE"/>
<path transform="translate(1062,660)" d="m0 0 4 2 8 7 1 3-5 5-5 6-4-2-9-8 1-4 7-6z" fill="#FEFEFE"/>
<path transform="translate(730,361)" d="m0 0 4 2 9 8-1 3-5 3-3 6-5-1-7-6-3-2v-3l5-4h2l2-5z" fill="#FEFEFE"/>
<path transform="translate(1061,794)" d="m0 0 5 1 10 9-2 3-5 3-5 6-7-6-6-4 2-4 5-4z" fill="#FEFEFE"/>
<path transform="translate(963,360)" d="m0 0 7 6 6 5-5 5-6 8-4-2-5-6-4-3 2-4 7-6z" fill="#FEFEFE"/>
<path transform="translate(730,327)" d="m0 0 4 2 4 5 5 5-4 4h-2l-2 4-2 3h-4l-4-6-6-4 1-3 6-4z" fill="#FEFEFE"/>
<path transform="translate(330,993)" d="m0 0 5 2 9 8-3 5-5 4-3 4-3-1-6-7-4-4 6-5z" fill="#FEFEFE"/>
<path transform="translate(530,926)" d="m0 0 4 2 4 5 5 3-1 4-6 5-3 4-4-1-5-6-5-5 7-5z" fill="#FEFEFE"/>
<path transform="translate(1061,694)" d="m0 0 4 1 6 5 4 3-1 4-7 6-3 3-4-2-5-5-3-2 1-4 5-4z" fill="#FEFEFE"/>
<path transform="translate(1061,1126)" d="m0 0 4 1 8 8 2 1v3l-6 4-4 6-4-2-7-7-3-2v-2l7-4z" fill="#FEFEFE"/>
<path transform="translate(298,693)" d="m0 0 5 5 8 6-1 3-6 4-3 5-4-1-7-7-3-2 1-3 6-5z" fill="#FEFEFE"/>
<path transform="translate(762,427)" d="m0 0 4 2 6 5 5 3-2 4-6 4-5 5-12-11v-2l7-4z" fill="#FEFEFE"/>
<path transform="translate(929,361)" d="m0 0 4 1 4 5 5 4v2l-6 4-5 7-5-4-5-5-3-2 1-3 5-3z" fill="#FEFEFE"/>
</svg>
